<?xml version="1.0" encoding="utf-8"?>
<!-- Generator: Adobe Illustrator 15.0.0, SVG Export Plug-In . SVG Version: 6.00 Build 0)  -->
<!DOCTYPE svg PUBLIC "-//W3C//DTD SVG 1.1//EN" "http://www.w3.org/Graphics/SVG/1.1/DTD/svg11.dtd">
<svg version="1.1" xmlns="http://www.w3.org/2000/svg" xmlns:xlink="http://www.w3.org/1999/xlink" x="0px" y="0px"
	 width="895.385px" height="632.574px" viewBox="-95.385 0 895.385 632.574" enable-background="new -95.385 0 895.385 632.574"
	 xml:space="preserve">
<g id="Calque_2">
	<rect x="54" y="30" opacity="0.03" width="85" height="547.582"/>
	<rect x="148" y="30" opacity="0.03" width="85" height="547.582"/>
	<rect x="242" y="30" opacity="0.03" width="85" height="547.582"/>
	<rect x="336" y="30" opacity="0.03" width="85" height="547.582"/>
	<rect x="430" y="30" opacity="0.03" width="85" height="547.582"/>
	<rect x="524" y="30" opacity="0.03" width="85" height="547.582"/>
	<rect x="618" y="30" opacity="0.03" width="85" height="547.582"/>
	<rect x="712" y="30" opacity="0.03" width="85" height="547.582"/>
</g>
<g id="Calque_1">
	<g transform="translate(50,0)">
		<text transform="matrix(1 0 0 1 -84.0181 60.0645)" enable-background="new    "><tspan x="0" y="0" font-family="'LucidaGrande-Bold'" font-size="10">Sciences,</tspan><tspan x="-25.054" y="12" font-family="'LucidaGrande-Bold'" font-size="10">Technologies,</tspan><tspan x="-8.125" y="24" font-family="'LucidaGrande-Bold'" font-size="10">Ingénierie,</tspan><tspan x="-33.003" y="36" font-family="'LucidaGrande-Bold'" font-size="10">Mathématiques</tspan></text>
		<g transform="translate(0,30)" opacity="0.5">
			<g transform="translate(0,86)">
				<line fill="none" stroke="#CCCCCC" x1="0" y1="-0.6" x2="-6" y2="-0.6"/>
				<text transform="matrix(1 0 0 1 -20.9014 2.6001)" font-family="'LucidaGrande'" font-size="10">0%</text>
			</g>
			<g transform="translate(0,67.28827803852361)">
				<line fill="none" stroke="#CCCCCC" x1="0" y1="-0.6" x2="-6" y2="-0.6"/>
			</g>
			<g transform="translate(0,48.57655607704723)">
				<line fill="none" stroke="#CCCCCC" x1="0" y1="-0.6" x2="-6" y2="-0.6"/>
			</g>
			<g transform="translate(0,29.864834115570844)">
				<line fill="none" stroke="#CCCCCC" x1="0" y1="-0.6" x2="-6" y2="-0.6"/>
			</g>
			<g transform="translate(0,11.153112154094453)">
				<line fill="none" stroke="#CCCCCC" x1="0" y1="-0.6" x2="-6" y2="-0.6"/>
			</g>
			<path fill="none" stroke="#CCCCCC" d="M-6-0.6h6v86h-6"/>
			<text transform="matrix(1 0 0 1 -33.9014 4.2534)" font-family="'LucidaGrande'" font-size="10">100%</text>
		</g>
		<rect x="4" y="44.983" fill="#0071BC" width="85" height="71.017"/>
		<rect x="98" y="97.465" fill="#BFA969" width="85" height="18.535"/>
		<rect x="192" y="113.148" fill="#94BF69" width="85" height="2.852"/>
		<rect x="286" y="115.85" fill="#69BF7E" width="85" height="0.15"/>
		<rect x="380" y="115.502" fill="#69BFBF" width="85" height="0.498"/>
		<rect x="474" y="115.544" fill="#697EBF" width="85" height="0.456"/>
		<rect x="568" y="115.959" fill="#9469BF" width="85" height="0.041"/>
		<rect x="662" y="115.991" fill="#BF69A9" width="85" height="0.009"/>
	</g>
	<g transform="translate(50,116)">
		<text transform="matrix(1 0 0 1 -86.0498 54.4985)" enable-background="new    "><tspan x="0" y="0" font-family="'LucidaGrande-Bold'" font-size="10">Sciences</tspan><tspan x="-7.729" y="12" font-family="'LucidaGrande-Bold'" font-size="10">Humaines</tspan><tspan x="-8.511" y="24" font-family="'LucidaGrande-Bold'" font-size="10">&amp; Sociales</tspan></text>
		<rect x="98" y="110.204" fill="#BFA969" width="85" height="5.796"/>
		<rect x="192" y="112.995" fill="#94BF69" width="85" height="3.005"/>
		<rect x="286" y="115.85" fill="#69BF7E" width="85" height="0.15"/>
		<rect x="380" y="115.873" fill="#69BFBF" width="85" height="0.127"/>
		<rect x="474" y="115.791" fill="#697EBF" width="85" height="0.209"/>
		<rect x="568" y="115.979" fill="#9469BF" width="85" height="0.021"/>
		<polygon fill="#BF69A9" points="662,116 747,116 747,116 		"/>
		<rect x="4" y="31.751" fill="#0071BC" width="85" height="84.249"/>
		<g transform="translate(0,30)" opacity="0.5">
			<g transform="translate(0,86)">
				<line fill="none" stroke="#CCCCCC" x1="0" y1="-0.725" x2="-6" y2="-0.725"/>
				<text transform="matrix(1 0 0 1 -20.9014 2.4756)" font-family="'LucidaGrande'" font-size="10">0%</text>
			</g>
			<g transform="translate(0,67.28827803852361)">
				<line fill="none" stroke="#CCCCCC" x1="0" y1="-0.725" x2="-6" y2="-0.725"/>
			</g>
			<g transform="translate(0,48.57655607704723)">
				<line fill="none" stroke="#CCCCCC" x1="0" y1="-0.725" x2="-6" y2="-0.725"/>
			</g>
			<g transform="translate(0,29.864834115570844)">
				<line fill="none" stroke="#CCCCCC" x1="0" y1="-0.724" x2="-6" y2="-0.724"/>
			</g>
			<g transform="translate(0,11.153112154094453)">
				<line fill="none" stroke="#CCCCCC" x1="0" y1="-0.724" x2="-6" y2="-0.724"/>
			</g>
			<path fill="none" stroke="#CCCCCC" d="M-6-0.725h6v86h-6"/>
			<text transform="matrix(1 0 0 1 -33.9014 4.1289)" font-family="'LucidaGrande'" font-size="10">100%</text>
		</g>
	</g>
	<g transform="translate(50,232)">
		<text transform="matrix(1 0 0 1 -88.9976 78.5762)" font-family="'LucidaGrande-Bold'" font-size="10">Médecine</text>
		<rect x="4" y="30" fill="#0071BC" width="85" height="86"/>
		<rect x="98" y="112.413" fill="#BFA969" width="85" height="3.587"/>
		<rect x="192" y="112.698" fill="#94BF69" width="85" height="3.302"/>
		<rect x="286" y="115.931" fill="#69BF7E" width="85" height="0.069"/>
		<rect x="380" y="115.592" fill="#69BFBF" width="85" height="0.408"/>
		<rect x="474" y="115.812" fill="#697EBF" width="85" height="0.188"/>
		<rect x="568" y="115.995" fill="#9469BF" width="85" height="0.005"/>
		<polygon fill="#BF69A9" points="662,116 747,116 747,116 		"/>
		<g transform="translate(0,30)" opacity="0.5">
			<g transform="translate(0,86)">
				<line fill="none" stroke="#CCCCCC" x1="0" y1="-1.6" x2="-6" y2="-1.6"/>
				<text transform="matrix(1 0 0 1 -20.9014 1.5996)" font-family="'LucidaGrande'" font-size="10">0%</text>
			</g>
			<g transform="translate(0,67.28827803852361)">
				<line fill="none" stroke="#CCCCCC" x1="0" y1="-1.601" x2="-6" y2="-1.601"/>
			</g>
			<g transform="translate(0,48.57655607704723)">
				<line fill="none" stroke="#CCCCCC" x1="0" y1="-1.6" x2="-6" y2="-1.6"/>
			</g>
			<g transform="translate(0,29.864834115570844)">
				<line fill="none" stroke="#CCCCCC" x1="0" y1="-1.6" x2="-6" y2="-1.6"/>
			</g>
			<g transform="translate(0,11.153112154094453)">
				<line fill="none" stroke="#CCCCCC" x1="0" y1="-1.6" x2="-6" y2="-1.6"/>
			</g>
			<path fill="none" stroke="#CCCCCC" d="M-6-1.6h6v86h-6"/>
			<text transform="matrix(1 0 0 1 -33.9014 3.2534)" font-family="'LucidaGrande'" font-size="10">100%</text>
		</g>
	</g>
	<g transform="translate(50,348)">
		<text transform="matrix(1 0 0 1 -66.9976 68.0645)" font-family="'LucidaGrande-Bold'" font-size="10">Droit</text>
		<polygon fill="#9469BF" points="568,116 653,116 653,116 		"/>
		<rect x="98" y="111.886" fill="#BFA969" width="85" height="4.114"/>
		<rect x="192" y="112.436" fill="#94BF69" width="85" height="3.564"/>
		<rect x="286" y="115.73" fill="#69BF7E" width="85" height="0.27"/>
		<rect x="380" y="115.702" fill="#69BFBF" width="85" height="0.298"/>
		<rect x="474" y="115.694" fill="#697EBF" width="85" height="0.306"/>
		<polygon fill="#BF69A9" points="662,116 747,116 747,116 		"/>
		<rect x="4" y="30.993" fill="#0071BC" width="85" height="85.007"/>
		<g transform="translate(0,30)" opacity="0.5">
			<g transform="translate(0,86)">
				<line fill="none" stroke="#CCCCCC" x1="0" y1="-0.007" x2="-6" y2="-0.007"/>
				<text transform="matrix(1 0 0 1 -20.9014 3.1934)" font-family="'LucidaGrande'" font-size="10">0%</text>
			</g>
			<g transform="translate(0,67.28827803852361)">
				<line fill="none" stroke="#CCCCCC" x1="0" y1="-0.007" x2="-6" y2="-0.007"/>
			</g>
			<g transform="translate(0,48.57655607704723)">
				<line fill="none" stroke="#CCCCCC" x1="0" y1="-0.007" x2="-6" y2="-0.007"/>
			</g>
			<g transform="translate(0,29.864834115570844)">
				<line fill="none" stroke="#CCCCCC" x1="0" y1="-0.006" x2="-6" y2="-0.006"/>
			</g>
			<g transform="translate(0,11.153112154094453)">
				<line fill="none" stroke="#CCCCCC" x1="0" y1="-0.007" x2="-6" y2="-0.007"/>
			</g>
			<path fill="none" stroke="#CCCCCC" d="M-6-0.007h6v86h-6"/>
			<text transform="matrix(1 0 0 1 -33.9014 4.8467)" font-family="'LucidaGrande'" font-size="10">100%</text>
		</g>
	</g>
	<g transform="translate(50,464)">
		<text transform="matrix(1 0 0 1 -114.9976 78.5762)" font-family="'LucidaGrande-Bold'" font-size="10">Arts et Lettres</text>
		<g transform="translate(0,30)" opacity="0.5">
			<g transform="translate(0,86)">
				<line fill="none" stroke="#CCCCCC" x1="0" y1="0" x2="-6" y2="0"/>
				<text transform="matrix(1 0 0 1 -20.9014 3.2002)" font-family="'LucidaGrande'" font-size="10">0%</text>
			</g>
			<g transform="translate(0,67.28827803852361)">
				<line fill="none" stroke="#CCCCCC" x1="0" y1="0" x2="-6" y2="0"/>
			</g>
			<g transform="translate(0,48.57655607704723)">
				<line fill="none" stroke="#CCCCCC" x1="0" y1="0" x2="-6" y2="0"/>
			</g>
			<g transform="translate(0,29.864834115570844)">
				<line fill="none" stroke="#CCCCCC" x1="0" y1="0" x2="-6" y2="0"/>
			</g>
			<g transform="translate(0,11.153112154094453)">
				<line fill="none" stroke="#CCCCCC" x1="0" y1="0" x2="-6" y2="0"/>
			</g>
			<path fill="none" stroke="#CCCCCC" d="M-6,0h6v86h-6"/>
			<text transform="matrix(1 0 0 1 -33.9014 4.8535)" font-family="'LucidaGrande'" font-size="10">100%</text>
		</g>
		<rect x="662" y="115.967" fill="#BF69A9" width="85" height="0.033"/>
		<rect x="4" y="32.309" fill="#0071BC" width="85" height="83.691"/>
		<rect x="192" y="111.164" fill="#94BF69" width="85" height="4.836"/>
		<rect x="286" y="115.81" fill="#69BF7E" width="85" height="0.19"/>
		<rect x="380" y="115.491" fill="#69BFBF" width="85" height="0.509"/>
		<rect x="474" y="115.437" fill="#697EBF" width="85" height="0.563"/>
		<rect x="568" y="115.954" fill="#9469BF" width="85" height="0.046"/>
		<rect x="98" y="112.311" fill="#BFA969" width="85" height="3.689"/>
	</g>
	<g transform="translate(50,580)">
		<g transform="translate(46.5,0)">
			<line fill="none" stroke="#CCCCCC" x1="0" y1="0" x2="0" y2="6"/>
			<text transform="matrix(1 0 0 1 -36.4136 19.0996)" enable-background="new    "><tspan x="0" y="0" font-family="'MinionPro-It'" font-size="9">logiciels bureautiques</tspan><tspan x="0" y="10.8" font-family="'MinionPro-It'" font-size="9">(«What You See Is</tspan><tspan x="0" y="21.6" font-family="'MinionPro-It'" font-size="9">What You Get»)</tspan></text>
		</g>
		<g transform="translate(140.5,0)">
			<line fill="none" stroke="#CCCCCC" x1="0" y1="0" x2="0" y2="6"/>
		</g>
		<g transform="translate(234.5,0)">
			<line fill="none" stroke="#CCCCCC" x1="0" y1="0" x2="0" y2="6"/>
			<text transform="matrix(1 0 0 1 -26.4136 19.0996)" enable-background="new    "><tspan x="0" y="0" font-family="'MinionPro-It'" font-size="9">autres logiciels</tspan><tspan x="0" y="10.8" font-family="'MinionPro-It'" font-size="9">(mind mapping,</tspan><tspan x="0" y="21.6" font-family="'MinionPro-It'" font-size="9">bibliographie, ...)</tspan></text>
		</g>
		<g transform="translate(328.5,0)">
			<line fill="none" stroke="#CCCCCC" x1="0" y1="0" x2="0" y2="6"/>
			<text transform="matrix(1 0 0 1 -35.4136 19.0996)" enable-background="new    "><tspan x="0" y="0" font-family="'MinionPro-It'" font-size="9">formats d’encodage</tspan><tspan x="0" y="10.8" font-family="'MinionPro-It'" font-size="9">léger (markdown,</tspan><tspan x="0" y="21.6" font-family="'MinionPro-It'" font-size="9">wiki, ...)</tspan></text>
		</g>
		<g transform="translate(422.5,0)">
			<line fill="none" stroke="#CCCCCC" x1="0" y1="0" x2="0" y2="6"/>
			<text transform="matrix(1 0 0 1 -38.4141 19.0996)" font-family="'MinionPro-It'" font-size="9">logiciels d’infographie</text>
		</g>
		<g transform="translate(516.5,0)">
			<line fill="none" stroke="#CCCCCC" x1="0" y1="0" x2="0" y2="6"/>
			<text transform="matrix(1 0 0 1 -24.4141 19.0996)" enable-background="new    "><tspan x="0" y="0" font-family="'MinionPro-It'" font-size="9">logiciels</tspan><tspan x="0" y="10.8" font-family="'MinionPro-It'" font-size="9">de traitement</tspan><tspan x="0" y="21.6" font-family="'MinionPro-It'" font-size="9">de texte brut</tspan></text>
		</g>
		<g transform="translate(610.5,0)">
			<line fill="none" stroke="#CCCCCC" x1="0" y1="0" x2="0" y2="6"/>
			<text transform="matrix(1 0 0 1 -33.4141 18.5996)" enable-background="new    "><tspan x="0" y="0" font-family="'MinionPro-It'" font-size="9">logiciels et langages</tspan><tspan x="0" y="10.8" font-family="'MinionPro-It'" font-size="9">d’édition de sites</tspan><tspan x="0" y="21.6" font-family="'MinionPro-It'" font-size="9">web</tspan></text>
		</g>
		<g transform="translate(704.5,0)">
			<line fill="none" stroke="#CCCCCC" x1="0" y1="0" x2="0" y2="6"/>
			<text transform="matrix(1 0 0 1 -32.4141 18.5996)" enable-background="new    "><tspan x="0" y="0" font-family="'MinionPro-It'" font-size="9">logiciels et formats</tspan><tspan x="0" y="10.8" font-family="'MinionPro-It'" font-size="9">associés </tspan><tspan x="0" y="21.6" font-family="'MinionPro-It'" font-size="9">à XML/TEI</tspan></text>
		</g>
		<path fill="none" stroke="#CCCCCC" d="M0,6V0h750v6"/>
		<text transform="matrix(1 0 0 1 107.0864 19.0996)" enable-background="new    "><tspan x="0" y="0" font-family="'MinionPro-It'" font-size="9">logiciels appareillant</tspan><tspan x="0" y="10.8" font-family="'MinionPro-It'" font-size="9">le format TeX</tspan><tspan x="0" y="21.6" font-family="'MinionPro-It'" font-size="9">et ses apparentés</tspan></text>
	</g>
</g>
<g id="Calque_3">
	<rect x="54" y="46.499" fill="none" width="85" height="12"/>
	<text transform="matrix(1 0 0 1 84.9014 55.751)" fill="#FFFFFF" font-family="'LucidaGrande'" font-size="12">76%</text>
	<rect x="148" y="85.833" fill="none" width="85" height="12"/>
	<text transform="matrix(1 0 0 1 178.9014 95.0845)" fill="#727272" font-family="'LucidaGrande'" font-size="12">19%</text>
	<rect x="242" y="98.732" fill="none" width="85" height="12"/>
	<text transform="matrix(1 0 0 1 276.6953 107.9844)" fill="#727272" font-family="'LucidaGrande'" font-size="12">3%</text>
	<rect x="148" y="212.833" fill="none" width="85" height="12"/>
	<text transform="matrix(1 0 0 1 182.6953 222.0845)" fill="#727272" font-family="'LucidaGrande'" font-size="12">6%</text>
	<rect x="148" y="331.413" fill="none" width="85" height="12"/>
	<text transform="matrix(1 0 0 1 182.6953 340.665)" fill="#727272" font-family="'LucidaGrande'" font-size="12">4%</text>
	<rect x="148" y="446.436" fill="none" width="85" height="12"/>
	<text transform="matrix(1 0 0 1 182.6953 455.6875)" fill="#727272" font-family="'LucidaGrande'" font-size="12">4%</text>
	<rect x="148" y="562.311" fill="none" width="85" height="12"/>
	<text transform="matrix(1 0 0 1 182.6953 571.5625)" fill="#727272" font-family="'LucidaGrande'" font-size="12">4%</text>
	<rect x="54" y="149.275" fill="none" width="85" height="12"/>
	<text transform="matrix(1 0 0 1 84.9014 158.5273)" fill="#FFFFFF" font-family="'LucidaGrande'" font-size="12">90%</text>
	<rect x="54" y="263.553" fill="none" width="85" height="12"/>
	<text transform="matrix(1 0 0 1 84.9014 272.8052)" fill="#FFFFFF" font-family="'LucidaGrande'" font-size="12">92%</text>
	<rect x="54" y="380.993" fill="none" width="85" height="12"/>
	<text transform="matrix(1 0 0 1 84.9014 390.2451)" fill="#FFFFFF" font-family="'LucidaGrande'" font-size="12">91%</text>
	<rect x="54" y="498.309" fill="none" width="85" height="12"/>
	<text transform="matrix(1 0 0 1 84.9014 507.5605)" fill="#FFFFFF" font-family="'LucidaGrande'" font-size="12">89%</text>
</g>
</svg>
