<?xml version="1.0" encoding="utf-8"?>
<!-- Generator: Adobe Illustrator 15.0.0, SVG Export Plug-In . SVG Version: 6.00 Build 0)  -->
<!DOCTYPE svg PUBLIC "-//W3C//DTD SVG 1.1//EN" "http://www.w3.org/Graphics/SVG/1.1/DTD/svg11.dtd">
<svg version="1.1" xmlns="http://www.w3.org/2000/svg" xmlns:xlink="http://www.w3.org/1999/xlink" x="0px" y="0px" width="800px"
	 height="1020.374px" viewBox="0 -420.374 800 1020.374" enable-background="new 0 -420.374 800 1020.374" xml:space="preserve">
<g id="Calque_1">
	<g transform="translate(50,0)">
		<g transform="translate(0,0)">
			<g transform="translate(0,550)">
				<line fill="none" stroke="#CCCCCC" x1="-5.488" y1="-615.409" x2="-8.84" y2="-615.409"/>
				<text transform="matrix(1 0 0 1 -13.6226 -613.6226)" font-family="'ArialMT'" font-size="5.5858">0</text>
			</g>
			<g transform="translate(0,537.9596274963665)">
				<line fill="none" stroke="#CCCCCC" x1="-5.488" y1="-610.094" x2="-8.84" y2="-610.094"/>
				<text transform="matrix(1 0 0 1 -13.6226 -608.3088)" font-family="'ArialMT'" font-size="5.5858">2</text>
			</g>
			<g transform="translate(0,525.9192549927329)">
				<line fill="none" stroke="#CCCCCC" x1="-5.488" y1="-604.78" x2="-8.84" y2="-604.78"/>
				<text transform="matrix(1 0 0 1 -13.6226 -602.993)" font-family="'ArialMT'" font-size="5.5858">4</text>
			</g>
			<g transform="translate(0,513.8788824890994)">
				<line fill="none" stroke="#CCCCCC" x1="-5.488" y1="-599.465" x2="-8.84" y2="-599.465"/>
				<text transform="matrix(1 0 0 1 -13.6226 -597.6782)" font-family="'ArialMT'" font-size="5.5858">6</text>
			</g>
			<g transform="translate(0,501.8385099854659)">
				<line fill="none" stroke="#CCCCCC" x1="-5.488" y1="-594.15" x2="-8.84" y2="-594.15"/>
				<text transform="matrix(1 0 0 1 -13.6226 -592.3634)" font-family="'ArialMT'" font-size="5.5858">8</text>
			</g>
			<g transform="translate(0,489.7981374818324)">
				<line fill="none" stroke="#CCCCCC" x1="-5.488" y1="-588.836" x2="-8.84" y2="-588.836"/>
				<text transform="matrix(1 0 0 1 -16.7285 -587.0486)" font-family="'ArialMT'" font-size="5.5858">10</text>
			</g>
			<g transform="translate(0,477.7577649781989)">
				<line fill="none" stroke="#CCCCCC" x1="-5.488" y1="-583.52" x2="-8.84" y2="-583.52"/>
				<text transform="matrix(1 0 0 1 -16.7285 -581.7328)" font-family="'ArialMT'" font-size="5.5858">12</text>
			</g>
			<g transform="translate(0,465.71739247456526)">
				<line fill="none" stroke="#CCCCCC" x1="-5.488" y1="-578.206" x2="-8.84" y2="-578.206"/>
				<text transform="matrix(1 0 0 1 -16.7285 -576.4191)" font-family="'ArialMT'" font-size="5.5858">14</text>
			</g>
			<g transform="translate(0,453.6770199709318)">
				<line fill="none" stroke="#CCCCCC" x1="-5.488" y1="-572.892" x2="-8.84" y2="-572.892"/>
				<text transform="matrix(1 0 0 1 -16.7285 -571.1042)" font-family="'ArialMT'" font-size="5.5858">16</text>
			</g>
			<g transform="translate(0,441.63664746729825)">
				<line fill="none" stroke="#CCCCCC" x1="-5.488" y1="-567.576" x2="-8.84" y2="-567.576"/>
				<text transform="matrix(1 0 0 1 -16.7285 -565.7895)" font-family="'ArialMT'" font-size="5.5858">18</text>
			</g>
			<g transform="translate(0,429.5962749636647)">
				<line fill="none" stroke="#CCCCCC" x1="-5.488" y1="-562.26" x2="-8.84" y2="-562.26"/>
				<text transform="matrix(1 0 0 1 -16.7285 -560.4738)" font-family="'ArialMT'" font-size="5.5858">20</text>
			</g>
			<g transform="translate(0,417.55590246003123)">
				<line fill="none" stroke="#CCCCCC" x1="-5.488" y1="-556.946" x2="-8.84" y2="-556.946"/>
				<text transform="matrix(1 0 0 1 -16.7285 -555.1589)" font-family="'ArialMT'" font-size="5.5858">22</text>
			</g>
			<g transform="translate(0,405.5155299563977)">
				<line fill="none" stroke="#CCCCCC" x1="-5.488" y1="-551.631" x2="-8.84" y2="-551.631"/>
				<text transform="matrix(1 0 0 1 -16.7285 -549.8461)" font-family="'ArialMT'" font-size="5.5858">24</text>
			</g>
			<g transform="translate(0,393.47515745276417)">
				<line fill="none" stroke="#CCCCCC" x1="-5.488" y1="-546.315" x2="-8.84" y2="-546.315"/>
				<text transform="matrix(1 0 0 1 -16.7285 -544.5303)" font-family="'ArialMT'" font-size="5.5858">26</text>
			</g>
			<g transform="translate(0,381.43478494913063)">
				<line fill="none" stroke="#CCCCCC" x1="-5.488" y1="-541.001" x2="-8.84" y2="-541.001"/>
				<text transform="matrix(1 0 0 1 -16.7285 -539.2156)" font-family="'ArialMT'" font-size="5.5858">28</text>
			</g>
			<g transform="translate(0,369.3944124454971)">
				<line fill="none" stroke="#CCCCCC" x1="-5.488" y1="-535.687" x2="-8.84" y2="-535.687"/>
				<text transform="matrix(1 0 0 1 -16.7285 -533.8998)" font-family="'ArialMT'" font-size="5.5858">30</text>
			</g>
			<g transform="translate(0,357.3540399418636)">
				<line fill="none" stroke="#CCCCCC" x1="-5.488" y1="-530.371" x2="-8.84" y2="-530.371"/>
				<text transform="matrix(1 0 0 1 -16.7285 -528.5859)" font-family="'ArialMT'" font-size="5.5858">32</text>
			</g>
			<g transform="translate(0,345.3136674382301)">
				<line fill="none" stroke="#CCCCCC" x1="-5.488" y1="-525.056" x2="-8.84" y2="-525.056"/>
				<text transform="matrix(1 0 0 1 -16.7285 -523.2702)" font-family="'ArialMT'" font-size="5.5858">34</text>
			</g>
			<g transform="translate(0,333.27329493459655)">
				<line fill="none" stroke="#CCCCCC" x1="-5.488" y1="-519.742" x2="-8.84" y2="-519.742"/>
				<text transform="matrix(1 0 0 1 -16.7285 -517.9554)" font-family="'ArialMT'" font-size="5.5858">36</text>
			</g>
			<g transform="translate(0,321.2329224309631)">
				<line fill="none" stroke="#CCCCCC" x1="-5.488" y1="-514.428" x2="-8.84" y2="-514.428"/>
				<text transform="matrix(1 0 0 1 -16.7285 -512.6406)" font-family="'ArialMT'" font-size="5.5858">38</text>
			</g>
			<g transform="translate(0,309.1925499273294)">
				<line fill="none" stroke="#CCCCCC" x1="-5.488" y1="-509.111" x2="-8.84" y2="-509.111"/>
				<text transform="matrix(1 0 0 1 -16.7285 -507.3258)" font-family="'ArialMT'" font-size="5.5858">40</text>
			</g>
			<g transform="translate(0,297.15217742369595)">
				<line fill="none" stroke="#CCCCCC" x1="-5.488" y1="-503.798" x2="-8.84" y2="-503.798"/>
				<text transform="matrix(1 0 0 1 -16.7285 -502.0101)" font-family="'ArialMT'" font-size="5.5858">42</text>
			</g>
			<g transform="translate(0,285.1118049200624)">
				<line fill="none" stroke="#CCCCCC" x1="-5.488" y1="-498.483" x2="-8.84" y2="-498.483"/>
				<text transform="matrix(1 0 0 1 -16.7285 -496.6963)" font-family="'ArialMT'" font-size="5.5858">44</text>
			</g>
			<g transform="translate(0,273.0714324164289)">
				<line fill="none" stroke="#CCCCCC" x1="-5.488" y1="-493.168" x2="-8.84" y2="-493.168"/>
				<text transform="matrix(1 0 0 1 -16.7285 -491.3805)" font-family="'ArialMT'" font-size="5.5858">46</text>
			</g>
			<g transform="translate(0,261.0310599127954)">
				<line fill="none" stroke="#CCCCCC" x1="-5.488" y1="-487.853" x2="-8.84" y2="-487.853"/>
				<text transform="matrix(1 0 0 1 -16.7285 -486.0657)" font-family="'ArialMT'" font-size="5.5858">48</text>
			</g>
			<g transform="translate(0,248.99068740916186)">
				<line fill="none" stroke="#CCCCCC" x1="-5.488" y1="-482.539" x2="-8.84" y2="-482.539"/>
				<text transform="matrix(1 0 0 1 -16.7285 -480.7519)" font-family="'ArialMT'" font-size="5.5858">50</text>
			</g>
			<g transform="translate(0,236.95031490552833)">
				<line fill="none" stroke="#CCCCCC" x1="-5.488" y1="-477.223" x2="-8.84" y2="-477.223"/>
				<text transform="matrix(1 0 0 1 -16.7285 -475.4371)" font-family="'ArialMT'" font-size="5.5858">52</text>
			</g>
			<g transform="translate(0,224.9099424018948)">
				<line fill="none" stroke="#CCCCCC" x1="-5.488" y1="-471.909" x2="-8.84" y2="-471.909"/>
				<text transform="matrix(1 0 0 1 -16.7285 -470.1204)" font-family="'ArialMT'" font-size="5.5858">54</text>
			</g>
			<g transform="translate(0,212.86956989826126)">
				<line fill="none" stroke="#CCCCCC" x1="-5.488" y1="-466.595" x2="-8.84" y2="-466.595"/>
				<text transform="matrix(1 0 0 1 -16.7285 -464.8066)" font-family="'ArialMT'" font-size="5.5858">56</text>
			</g>
			<g transform="translate(0,200.82919739462778)">
				<line fill="none" stroke="#CCCCCC" x1="-5.488" y1="-461.278" x2="-8.84" y2="-461.278"/>
				<text transform="matrix(1 0 0 1 -16.7285 -459.4918)" font-family="'ArialMT'" font-size="5.5858">58</text>
			</g>
			<g transform="translate(0,188.78882489099425)">
				<line fill="none" stroke="#CCCCCC" x1="-5.488" y1="-455.963" x2="-8.84" y2="-455.963"/>
				<text transform="matrix(1 0 0 1 -16.7285 -454.176)" font-family="'ArialMT'" font-size="5.5858">60</text>
			</g>
			<g transform="translate(0,176.7484523873607)">
				<line fill="none" stroke="#CCCCCC" x1="-5.488" y1="-450.649" x2="-8.84" y2="-450.649"/>
				<text transform="matrix(1 0 0 1 -16.7285 -448.8632)" font-family="'ArialMT'" font-size="5.5858">62</text>
			</g>
			<g transform="translate(0,164.70807988372715)">
				<line fill="none" stroke="#CCCCCC" x1="-5.488" y1="-445.334" x2="-8.84" y2="-445.334"/>
				<text transform="matrix(1 0 0 1 -16.7285 -443.5474)" font-family="'ArialMT'" font-size="5.5858">64</text>
			</g>
			<g transform="translate(0,152.66770738009367)">
				<line fill="none" stroke="#CCCCCC" x1="-5.488" y1="-440.018" x2="-8.84" y2="-440.018"/>
				<text transform="matrix(1 0 0 1 -16.7285 -438.2327)" font-family="'ArialMT'" font-size="5.5858">66</text>
			</g>
			<g transform="translate(0,140.62733487646014)">
				<line fill="none" stroke="#CCCCCC" x1="-5.488" y1="-434.704" x2="-8.84" y2="-434.704"/>
				<text transform="matrix(1 0 0 1 -16.7285 -432.9169)" font-family="'ArialMT'" font-size="5.5858">68</text>
			</g>
			<g transform="translate(0,128.5869623728266)">
				<line fill="none" stroke="#CCCCCC" x1="-5.488" y1="-429.39" x2="-8.84" y2="-429.39"/>
				<text transform="matrix(1 0 0 1 -16.7285 -427.6031)" font-family="'ArialMT'" font-size="5.5858">70</text>
			</g>
			<g transform="translate(0,116.54658986919306)">
				<line fill="none" stroke="#CCCCCC" x1="-5.488" y1="-424.073" x2="-8.84" y2="-424.073"/>
				<text transform="matrix(1 0 0 1 -16.7285 -422.2883)" font-family="'ArialMT'" font-size="5.5858">72</text>
			</g>
			<g transform="translate(0,104.50621736555958)">
				<line fill="none" stroke="#CCCCCC" x1="-5.488" y1="-418.759" x2="-8.84" y2="-418.759"/>
				<text transform="matrix(1 0 0 1 -16.7285 -416.9745)" font-family="'ArialMT'" font-size="5.5858">74</text>
			</g>
			<g transform="translate(0,92.46584486192604)">
				<line fill="none" stroke="#CCCCCC" x1="-5.488" y1="-413.445" x2="-8.84" y2="-413.445"/>
				<text transform="matrix(1 0 0 1 -16.7285 -411.6567)" font-family="'ArialMT'" font-size="5.5858">76</text>
			</g>
			<g transform="translate(0,80.42547235829251)">
				<line fill="none" stroke="#CCCCCC" x1="-5.488" y1="-408.13" x2="-8.84" y2="-408.13"/>
				<text transform="matrix(1 0 0 1 -16.7285 -406.343)" font-family="'ArialMT'" font-size="5.5858">78</text>
			</g>
			<g transform="translate(0,68.38509985465896)">
				<line fill="none" stroke="#CCCCCC" x1="-5.488" y1="-402.815" x2="-8.84" y2="-402.815"/>
				<text transform="matrix(1 0 0 1 -16.7285 -401.0282)" font-family="'ArialMT'" font-size="5.5858">80</text>
			</g>
			<g transform="translate(0,56.344727351025426)">
				<line fill="none" stroke="#CCCCCC" x1="-5.488" y1="-397.5" x2="-8.84" y2="-397.5"/>
				<text transform="matrix(1 0 0 1 -16.7285 -395.7144)" font-family="'ArialMT'" font-size="5.5858">82</text>
			</g>
			<g transform="translate(0,44.30435484739195)">
				<line fill="none" stroke="#CCCCCC" x1="-5.488" y1="-392.185" x2="-8.84" y2="-392.185"/>
				<text transform="matrix(1 0 0 1 -16.7285 -390.3996)" font-family="'ArialMT'" font-size="5.5858">84</text>
			</g>
			<g transform="translate(0,32.26398234375841)">
				<line fill="none" stroke="#CCCCCC" x1="-5.488" y1="-386.87" x2="-8.84" y2="-386.87"/>
				<text transform="matrix(1 0 0 1 -16.7285 -385.0838)" font-family="'ArialMT'" font-size="5.5858">86</text>
			</g>
			<g transform="translate(0,20.22360984012487)">
				<line fill="none" stroke="#CCCCCC" x1="-5.488" y1="-381.557" x2="-8.84" y2="-381.557"/>
				<text transform="matrix(1 0 0 1 -16.7285 -379.7681)" font-family="'ArialMT'" font-size="5.5858">88</text>
			</g>
			<g transform="translate(0,8.183237336491327)">
				<line fill="none" stroke="#CCCCCC" x1="-5.488" y1="-376.24" x2="-8.84" y2="-376.24"/>
				<text transform="matrix(1 0 0 1 -16.7285 -374.4542)" font-family="'ArialMT'" font-size="5.5858">90</text>
			</g>
			<path fill="none" stroke="#CCCCCC" d="M-8.84-372.629h3.352v307.22H-8.84"/>
		</g>
		<rect x="-1.019" y="-66.088" fill="#BF6969" width="33.515" height="0.679"/>
		<rect x="36.406" y="-68.502" fill="#94BF69" width="33.515" height="3.093"/>
		<rect x="73.831" y="-69.428" fill="#94BF69" width="33.515" height="4.02"/>
		<rect x="111.255" y="-66.814" fill="#BF6969" width="33.515" height="1.406"/>
		<rect x="148.68" y="-66.782" fill="#BF6969" width="33.515" height="1.374"/>
		<rect x="186.105" y="-175.219" fill="#69BFBF" width="33.515" height="109.81"/>
		<rect x="223.53" y="-127.491" fill="#9469BF" width="33.515" height="62.083"/>
		<rect x="260.955" y="-69.826" fill="#94BF69" width="33.514" height="4.417"/>
		<rect x="298.379" y="-66.286" fill="#94BF69" width="33.515" height="0.877"/>
		<rect x="335.805" y="-66.303" fill="#9469BF" width="33.515" height="0.894"/>
		<rect x="373.23" y="-66.535" fill="#BF6969" width="33.515" height="1.126"/>
		<rect x="410.653" y="-66.948" fill="#BF6969" width="33.515" height="1.539"/>
		<rect x="448.079" y="-372.629" fill="#69BFBF" width="33.515" height="307.22"/>
		<rect x="485.504" y="-68.965" fill="#69BFBF" width="33.515" height="3.556"/>
		<rect x="522.93" y="-71.942" fill="#9469BF" width="33.515" height="6.533"/>
		<rect x="560.354" y="-69.411" fill="#94BF69" width="33.515" height="4.002"/>
		<rect x="597.778" y="-66.814" fill="#BF6969" width="33.516" height="1.406"/>
		<rect x="635.203" y="-74.588" fill="#94BF69" width="33.515" height="9.179"/>
		<rect x="672.629" y="-66.369" fill="#9469BF" width="33.514" height="0.96"/>
		<rect x="710.054" y="-66.054" fill="#94BF69" width="33.515" height="0.645"/>
	</g>
	<g transform="translate(50,550)">
		<g transform="translate(38,0)">
			<line fill="none" stroke="#CCCCCC" x1="-22.262" y1="-615.409" x2="-22.262" y2="-612.057"/>
			<text transform="matrix(1 0 0 1 -42.1372 -606.4175)" font-family="'ArialMT'" font-size="5.5858">Adobe InDesign</text>
		</g>
		<g transform="translate(105,0)">
			<line fill="none" stroke="#CCCCCC" x1="-51.837" y1="-615.409" x2="-51.837" y2="-612.057"/>
			<text transform="matrix(1 0 0 1 -63.1733 -606.4175)" font-family="'ArialMT'" font-size="5.5858">Authorea</text>
		</g>
		<g transform="translate(172,0)">
			<line fill="none" stroke="#CCCCCC" x1="-81.412" y1="-615.409" x2="-81.412" y2="-612.057"/>
			<text transform="matrix(1 0 0 1 -91.9697 -606.4175)" font-family="'ArialMT'" font-size="5.5858">Dropbox</text>
		</g>
		<g transform="translate(239,0)">
			<line fill="none" stroke="#CCCCCC" x1="-110.987" y1="-615.409" x2="-110.987" y2="-612.057"/>
			<text transform="matrix(1 0 0 1 -121.856 -606.4175)" font-family="'ArialMT'" font-size="5.5858">EndNote</text>
		</g>
		<g transform="translate(306,0)">
			<line fill="none" stroke="#CCCCCC" x1="-140.562" y1="-615.409" x2="-140.562" y2="-612.057"/>
			<text transform="matrix(1 0 0 1 -151.7417 -606.4175)" font-family="'ArialMT'" font-size="5.5858">Evernote</text>
		</g>
		<g transform="translate(373,0)">
			<line fill="none" stroke="#CCCCCC" x1="-170.138" y1="-615.409" x2="-170.138" y2="-612.057"/>
			<text transform="matrix(1 0 0 1 -193.5767 -606.4175)" font-family="'ArialMT'" font-size="5.5858">Google Drive/Docs</text>
		</g>
		<g transform="translate(440,0)">
			<line fill="none" stroke="#CCCCCC" x1="-199.712" y1="-615.409" x2="-199.712" y2="-612.057"/>
			<text transform="matrix(1 0 0 1 -207.6328 -606.4175)" font-family="'ArialMT'" font-size="5.5858">LaTeX</text>
		</g>
		<g transform="translate(507,0)">
			<line fill="none" stroke="#CCCCCC" x1="-229.288" y1="-615.409" x2="-229.288" y2="-612.057"/>
			<text transform="matrix(1 0 0 1 -242.7427 -606.4175)" font-family="'ArialMT'" font-size="5.5858">LibreOffice</text>
		</g>
		<g transform="translate(574,0)">
			<line fill="none" stroke="#CCCCCC" x1="-258.863" y1="-615.409" x2="-258.863" y2="-612.057"/>
			<text transform="matrix(1 0 0 1 -280.4897 -606.4175)" font-family="'ArialMT'" font-size="5.5858">LibreOffice Writer</text>
		</g>
		<g transform="translate(641,0)">
			<line fill="none" stroke="#CCCCCC" x1="-288.438" y1="-615.409" x2="-288.438" y2="-612.057"/>
			<text transform="matrix(1 0 0 1 -293.1479 -606.4175)" font-family="'ArialMT'" font-size="5.5858">LyX</text>
		</g>
		<g transform="translate(708,0)">
			<line fill="none" stroke="#CCCCCC" x1="-318.014" y1="-615.409" x2="-318.014" y2="-612.057"/>
			<text transform="matrix(1 0 0 1 -329.8086 -606.4175)" font-family="'ArialMT'" font-size="5.5858">MS Excel</text>
		</g>
		<g transform="translate(775,0)">
			<line fill="none" stroke="#CCCCCC" x1="-347.588" y1="-615.409" x2="-347.588" y2="-612.057"/>
			<text transform="matrix(1 0 0 1 -366.5264 -606.4175)" font-family="'ArialMT'" font-size="5.5858">MS Powerpoint</text>
		</g>
		<g transform="translate(842,0)">
			<line fill="none" stroke="#CCCCCC" x1="-377.163" y1="-615.409" x2="-377.163" y2="-612.057"/>
			<text transform="matrix(1 0 0 1 -388.752 -606.4175)" font-family="'ArialMT'" font-size="5.5858">MS Word</text>
		</g>
		<g transform="translate(909,0)">
			<line fill="none" stroke="#CCCCCC" x1="-406.739" y1="-615.409" x2="-406.739" y2="-612.057"/>
			<text transform="matrix(1 0 0 1 -420.8145 -606.4175)" font-family="'ArialMT'" font-size="5.5858">OpenOffice</text>
		</g>
		<g transform="translate(976,0)">
			<line fill="none" stroke="#CCCCCC" x1="-436.314" y1="-615.409" x2="-436.314" y2="-612.057"/>
			<text transform="matrix(1 0 0 1 -465.5205 -606.4175)" font-family="'ArialMT'" font-size="5.5858">Overleaf (=WriteLaTeX)</text>
		</g>
		<g transform="translate(1043,0)">
			<line fill="none" stroke="#CCCCCC" x1="-465.889" y1="-615.409" x2="-465.889" y2="-612.057"/>
			<text transform="matrix(1 0 0 1 -473.8076 -606.4175)" font-family="'ArialMT'" font-size="5.5858">Pages</text>
		</g>
		<g transform="translate(1110,0)">
			<line fill="none" stroke="#CCCCCC" x1="-495.464" y1="-615.409" x2="-495.464" y2="-612.057"/>
			<text transform="matrix(1 0 0 1 -503.3809 -606.4175)" font-family="'ArialMT'" font-size="5.5858">Scalar</text>
		</g>
		<g transform="translate(1177,0)">
			<line fill="none" stroke="#CCCCCC" x1="-525.038" y1="-615.409" x2="-525.038" y2="-612.057"/>
			<text transform="matrix(1 0 0 1 -536.8359 -606.4175)" font-family="'ArialMT'" font-size="5.5858">Scrivener</text>
		</g>
		<g transform="translate(1244,0)">
			<line fill="none" stroke="#CCCCCC" x1="-554.615" y1="-615.409" x2="-554.615" y2="-612.057"/>
			<text transform="matrix(1 0 0 1 -569.9863 -606.4175)" font-family="'ArialMT'" font-size="5.5858">ShareLaTeX</text>
		</g>
		<g transform="translate(1311,0)">
			<line fill="none" stroke="#CCCCCC" x1="-584.189" y1="-615.409" x2="-584.189" y2="-612.057"/>
			<text transform="matrix(1 0 0 1 -599.6602 -606.4175)" font-family="'ArialMT'" font-size="5.5858">WordPerfect</text>
		</g>
		<path fill="none" stroke="#CCCCCC" d="M-5.488-612.057v-3.352h754.083v3.352"/>
	</g>
	<g transform="translate(50,0)">
		<text transform="matrix(1 0 0 1 -50 23)" font-family="'ArialMT'" font-size="10">Médecine</text>
		<g transform="translate(0,30)">
			<g transform="translate(0,86)">
				<line fill="none" stroke="#CCCCCC" x1="0" y1="0" x2="-6" y2="0"/>
				<text transform="matrix(1 0 0 1 -14.5615 3.2002)" font-family="'ArialMT'" font-size="10">0</text>
			</g>
			<g transform="translate(0,65.3348882949215)">
				<line fill="none" stroke="#CCCCCC" x1="0" y1="0" x2="-6" y2="0"/>
				<text transform="matrix(1 0 0 1 -20.123 3.2003)" font-family="'ArialMT'" font-size="10">20</text>
			</g>
			<g transform="translate(0,44.669776589842996)">
				<line fill="none" stroke="#CCCCCC" x1="0" y1="0" x2="-6" y2="0"/>
				<text transform="matrix(1 0 0 1 -20.123 3.2003)" font-family="'ArialMT'" font-size="10">40</text>
			</g>
			<g transform="translate(0,24.0046648847645)">
				<line fill="none" stroke="#CCCCCC" x1="0" y1="0" x2="-6" y2="0"/>
				<text transform="matrix(1 0 0 1 -20.123 3.2004)" font-family="'ArialMT'" font-size="10">60</text>
			</g>
			<g transform="translate(0,3.339553179686)">
				<line fill="none" stroke="#CCCCCC" x1="0" y1="0" x2="-6" y2="0"/>
				<text transform="matrix(1 0 0 1 -20.123 3.1995)" font-family="'ArialMT'" font-size="10">80</text>
			</g>
			<path fill="none" stroke="#CCCCCC" d="M-6,0h6v86h-6"/>
		</g>
		<rect y="33.151" fill="#69AABF" width="138" height="82.849"/>
		<rect x="153" y="113.498" fill="#AEBF69" width="138" height="2.502"/>
		<rect x="306" y="111.436" fill="#69BF8B" width="138" height="4.564"/>
		<rect x="459" y="115.606" fill="#698BBF" width="138" height="0.394"/>
		<rect x="612" y="110.886" fill="#AE69BF" width="138" height="5.114"/>
	</g>
	<g transform="translate(50,116)">
		<text transform="matrix(1 0 0 1 -50 23)" font-family="'ArialMT'" font-size="10">STEM</text>
		<g transform="translate(0,30)">
			<g transform="translate(0,86)">
				<line fill="none" stroke="#CCCCCC" x1="0" y1="0" x2="-6" y2="0"/>
				<text transform="matrix(1 0 0 1 -14.5615 3.2002)" font-family="'ArialMT'" font-size="10">0</text>
			</g>
			<g transform="translate(0,65.3348882949215)">
				<line fill="none" stroke="#CCCCCC" x1="0" y1="0" x2="-6" y2="0"/>
				<text transform="matrix(1 0 0 1 -20.123 3.2003)" font-family="'ArialMT'" font-size="10">20</text>
			</g>
			<g transform="translate(0,44.669776589842996)">
				<line fill="none" stroke="#CCCCCC" x1="0" y1="0" x2="-6" y2="0"/>
				<text transform="matrix(1 0 0 1 -20.123 3.2003)" font-family="'ArialMT'" font-size="10">40</text>
			</g>
			<g transform="translate(0,24.0046648847645)">
				<line fill="none" stroke="#CCCCCC" x1="0" y1="0" x2="-6" y2="0"/>
				<text transform="matrix(1 0 0 1 -20.123 3.2004)" font-family="'ArialMT'" font-size="10">60</text>
			</g>
			<g transform="translate(0,3.339553179686)">
				<line fill="none" stroke="#CCCCCC" x1="0" y1="0" x2="-6" y2="0"/>
				<text transform="matrix(1 0 0 1 -20.123 3.1995)" font-family="'ArialMT'" font-size="10">80</text>
			</g>
			<path fill="none" stroke="#CCCCCC" d="M-6,0h6v86h-6"/>
		</g>
		<rect y="34.325" fill="#69AABF" width="138" height="81.675"/>
		<rect x="153" y="112.936" fill="#AEBF69" width="138" height="3.064"/>
		<rect x="306" y="109.577" fill="#69BF8B" width="138" height="6.423"/>
		<rect x="459" y="114.7" fill="#698BBF" width="138" height="1.3"/>
		<rect x="612" y="86.166" fill="#AE69BF" width="138" height="29.834"/>
	</g>
	<g transform="translate(50,232)">
		<text transform="matrix(1 0 0 1 -50 23)" font-family="'ArialMT'" font-size="10">Droit</text>
		<g transform="translate(0,30)">
			<g transform="translate(0,86)">
				<line fill="none" stroke="#CCCCCC" x1="0" y1="0" x2="-6" y2="0"/>
				<text transform="matrix(1 0 0 1 -14.5615 3.2002)" font-family="'ArialMT'" font-size="10">0</text>
			</g>
			<g transform="translate(0,65.3348882949215)">
				<line fill="none" stroke="#CCCCCC" x1="0" y1="0" x2="-6" y2="0"/>
				<text transform="matrix(1 0 0 1 -20.123 3.2003)" font-family="'ArialMT'" font-size="10">20</text>
			</g>
			<g transform="translate(0,44.669776589842996)">
				<line fill="none" stroke="#CCCCCC" x1="0" y1="0" x2="-6" y2="0"/>
				<text transform="matrix(1 0 0 1 -20.123 3.2003)" font-family="'ArialMT'" font-size="10">40</text>
			</g>
			<g transform="translate(0,24.0046648847645)">
				<line fill="none" stroke="#CCCCCC" x1="0" y1="0" x2="-6" y2="0"/>
				<text transform="matrix(1 0 0 1 -20.123 3.2004)" font-family="'ArialMT'" font-size="10">60</text>
			</g>
			<g transform="translate(0,3.339553179686)">
				<line fill="none" stroke="#CCCCCC" x1="0" y1="0" x2="-6" y2="0"/>
				<text transform="matrix(1 0 0 1 -20.123 3.1995)" font-family="'ArialMT'" font-size="10">80</text>
			</g>
			<path fill="none" stroke="#CCCCCC" d="M-6,0h6v86h-6"/>
		</g>
		<rect y="58.731" fill="#69AABF" width="138" height="57.269"/>
		<rect x="153" y="114.206" fill="#AEBF69" width="138" height="1.794"/>
		<rect x="306" y="109.883" fill="#69BF8B" width="138" height="6.117"/>
		<rect x="459" y="115.386" fill="#698BBF" width="138" height="0.614"/>
		<rect x="612" y="111.399" fill="#AE69BF" width="138" height="4.601"/>
	</g>
	<g transform="translate(50,348)">
		<text transform="matrix(1 0 0 1 -50 23)" font-family="'ArialMT'" font-size="10">Arts et Lettres</text>
		<g transform="translate(0,30)">
			<g transform="translate(0,86)">
				<line fill="none" stroke="#CCCCCC" x1="0" y1="0" x2="-6" y2="0"/>
				<text transform="matrix(1 0 0 1 -14.5615 3.2002)" font-family="'ArialMT'" font-size="10">0</text>
			</g>
			<g transform="translate(0,65.3348882949215)">
				<line fill="none" stroke="#CCCCCC" x1="0" y1="0" x2="-6" y2="0"/>
				<text transform="matrix(1 0 0 1 -20.123 3.2003)" font-family="'ArialMT'" font-size="10">20</text>
			</g>
			<g transform="translate(0,44.669776589842996)">
				<line fill="none" stroke="#CCCCCC" x1="0" y1="0" x2="-6" y2="0"/>
				<text transform="matrix(1 0 0 1 -20.123 3.2003)" font-family="'ArialMT'" font-size="10">40</text>
			</g>
			<g transform="translate(0,24.0046648847645)">
				<line fill="none" stroke="#CCCCCC" x1="0" y1="0" x2="-6" y2="0"/>
				<text transform="matrix(1 0 0 1 -20.123 3.2004)" font-family="'ArialMT'" font-size="10">60</text>
			</g>
			<g transform="translate(0,3.339553179686)">
				<line fill="none" stroke="#CCCCCC" x1="0" y1="0" x2="-6" y2="0"/>
				<text transform="matrix(1 0 0 1 -20.123 3.1995)" font-family="'ArialMT'" font-size="10">80</text>
			</g>
			<path fill="none" stroke="#CCCCCC" d="M-6,0h6v86h-6"/>
		</g>
		<rect y="35.932" fill="#69AABF" width="138" height="80.068"/>
		<rect x="153" y="110.782" fill="#AEBF69" width="138" height="5.218"/>
		<rect x="306" y="105.487" fill="#69BF8B" width="138" height="10.513"/>
		<rect x="459" y="114.515" fill="#698BBF" width="138" height="1.485"/>
		<rect x="612" y="110.065" fill="#AE69BF" width="138" height="5.935"/>
	</g>
	<g transform="translate(50,464)">
		<text transform="matrix(1 0 0 1 -50 23)" font-family="'ArialMT'" font-size="10">SHS</text>
		<g transform="translate(0,30)">
			<g transform="translate(0,86)">
				<line fill="none" stroke="#CCCCCC" x1="0" y1="0" x2="-6" y2="0"/>
				<text transform="matrix(1 0 0 1 -14.5615 3.2002)" font-family="'ArialMT'" font-size="10">0</text>
			</g>
			<g transform="translate(0,65.3348882949215)">
				<line fill="none" stroke="#CCCCCC" x1="0" y1="0" x2="-6" y2="0"/>
				<text transform="matrix(1 0 0 1 -20.123 3.2003)" font-family="'ArialMT'" font-size="10">20</text>
			</g>
			<g transform="translate(0,44.669776589842996)">
				<line fill="none" stroke="#CCCCCC" x1="0" y1="0" x2="-6" y2="0"/>
				<text transform="matrix(1 0 0 1 -20.123 3.2003)" font-family="'ArialMT'" font-size="10">40</text>
			</g>
			<g transform="translate(0,24.0046648847645)">
				<line fill="none" stroke="#CCCCCC" x1="0" y1="0" x2="-6" y2="0"/>
				<text transform="matrix(1 0 0 1 -20.123 3.2004)" font-family="'ArialMT'" font-size="10">60</text>
			</g>
			<g transform="translate(0,3.339553179686)">
				<line fill="none" stroke="#CCCCCC" x1="0" y1="0" x2="-6" y2="0"/>
				<text transform="matrix(1 0 0 1 -20.123 3.1995)" font-family="'ArialMT'" font-size="10">80</text>
			</g>
			<path fill="none" stroke="#CCCCCC" d="M-6,0h6v86h-6"/>
		</g>
		<rect y="30" fill="#69AABF" width="138" height="86"/>
		<rect x="153" y="113.32" fill="#AEBF69" width="138" height="2.68"/>
		<rect x="306" y="108.187" fill="#69BF8B" width="138" height="7.813"/>
		<rect x="459" y="115.273" fill="#698BBF" width="138" height="0.727"/>
		<rect x="612" y="106.226" fill="#AE69BF" width="138" height="9.774"/>
	</g>
	<g transform="translate(50,580)">
		<g transform="translate(69,0)">
			<line fill="none" stroke="#CCCCCC" x1="0" y1="0" x2="0" y2="6"/>
			<text transform="matrix(1 0 0 1 -43.8232 16.0996)" font-family="'ArialMT'" font-size="10">Word et apparentés</text>
		</g>
		<g transform="translate(222,0)">
			<line fill="none" stroke="#CCCCCC" x1="0" y1="0" x2="0" y2="6"/>
			<text transform="matrix(1 0 0 1 -11.3965 16.0996)" font-family="'ArialMT'" font-size="10">autre</text>
		</g>
		<g transform="translate(375,0)">
			<line fill="none" stroke="#CCCCCC" x1="0" y1="0" x2="0" y2="6"/>
			<text transform="matrix(1 0 0 1 -65.0293 16.0996)" font-family="'ArialMT'" font-size="10">autres bureautique (wysiwyg)</text>
		</g>
		<g transform="translate(528,0)">
			<line fill="none" stroke="#CCCCCC" x1="0" y1="0" x2="0" y2="6"/>
			<text transform="matrix(1 0 0 1 -46.418 16.0996)" font-family="'ArialMT'" font-size="10">balisage et texte brut</text>
		</g>
		<g transform="translate(681,0)">
			<line fill="none" stroke="#CCCCCC" x1="0" y1="0" x2="0" y2="6"/>
			<text transform="matrix(1 0 0 1 -68.8398 16.0996)" font-family="'ArialMT'" font-size="10">format/éditeur apparenté à TeX</text>
		</g>
		<path fill="none" stroke="#CCCCCC" d="M0,6V0h750v6"/>
	</g>
</g>
<g id="Mode_Isolation">
	<text font-family="'ArialMT'" font-size="20">Type d’outils utilisés par discipline</text>
	<text transform="matrix(1 0 0 1 0 -387.0649)" font-family="'ArialMT'" font-size="20">20 outils les plus utilisés</text>
</g>
</svg>
