<svg width="800" height="600" xmlns="http://www.w3.org/2000/svg" version="1.1"><g transform="translate(50,0)"><text x="-50" y="23" style="font-size: 10px; font-family: Arial, Helvetica;">Médecine</text><g class="y axis" transform="translate(0,30)" style="font-size: 10px; font-family: Arial, Helvetica;"><g class="tick" transform="translate(0,86)" style="opacity: 1;"><line x2="-6" y2="0" style="shape-rendering: crispEdges; fill: none; stroke: rgb(204, 204, 204);"></line><text dy=".32em" x="-9" y="0" style="text-anchor: end;">0</text></g><g class="tick" transform="translate(0,65.3348882949215)" style="opacity: 1;"><line x2="-6" y2="0" style="shape-rendering: crispEdges; fill: none; stroke: rgb(204, 204, 204);"></line><text dy=".32em" x="-9" y="0" style="text-anchor: end;">20</text></g><g class="tick" transform="translate(0,44.669776589842996)" style="opacity: 1;"><line x2="-6" y2="0" style="shape-rendering: crispEdges; fill: none; stroke: rgb(204, 204, 204);"></line><text dy=".32em" x="-9" y="0" style="text-anchor: end;">40</text></g><g class="tick" transform="translate(0,24.0046648847645)" style="opacity: 1;"><line x2="-6" y2="0" style="shape-rendering: crispEdges; fill: none; stroke: rgb(204, 204, 204);"></line><text dy=".32em" x="-9" y="0" style="text-anchor: end;">60</text></g><g class="tick" transform="translate(0,3.339553179686)" style="opacity: 1;"><line x2="-6" y2="0" style="shape-rendering: crispEdges; fill: none; stroke: rgb(204, 204, 204);"></line><text dy=".32em" x="-9" y="0" style="text-anchor: end;">80</text></g><path class="domain" d="M-6,0H0V86H-6" style="shape-rendering: crispEdges; fill: none; stroke: rgb(204, 204, 204);"></path></g><rect transform="translate(0,30)" class="bar" x="0" width="138" y="3.151630895576755" height="82.84836910442324" style="fill: rgb(105, 170, 191);"></rect><rect transform="translate(0,30)" class="bar" x="153" width="138" y="83.4976902602712" height="2.502309739728801" style="fill: rgb(174, 191, 105);"></rect><rect transform="translate(0,30)" class="bar" x="306" width="138" y="81.4359790324418" height="4.564020967558207" style="fill: rgb(105, 191, 139);"></rect><rect transform="translate(0,30)" class="bar" x="459" width="138" y="85.60604244054215" height="0.3939575594578457" style="fill: rgb(105, 139, 191);"></rect><rect transform="translate(0,30)" class="bar" x="612" width="138" y="80.88579692354377" height="5.114203076456235" style="fill: rgb(174, 105, 191);"></rect></g><g transform="translate(50,116)"><text x="-50" y="23" style="font-size: 10px; font-family: Arial, Helvetica;">STEM</text><g class="y axis" transform="translate(0,30)" style="font-size: 10px; font-family: Arial, Helvetica;"><g class="tick" transform="translate(0,86)" style="opacity: 1;"><line x2="-6" y2="0" style="shape-rendering: crispEdges; fill: none; stroke: rgb(204, 204, 204);"></line><text dy=".32em" x="-9" y="0" style="text-anchor: end;">0</text></g><g class="tick" transform="translate(0,65.3348882949215)" style="opacity: 1;"><line x2="-6" y2="0" style="shape-rendering: crispEdges; fill: none; stroke: rgb(204, 204, 204);"></line><text dy=".32em" x="-9" y="0" style="text-anchor: end;">20</text></g><g class="tick" transform="translate(0,44.669776589842996)" style="opacity: 1;"><line x2="-6" y2="0" style="shape-rendering: crispEdges; fill: none; stroke: rgb(204, 204, 204);"></line><text dy=".32em" x="-9" y="0" style="text-anchor: end;">40</text></g><g class="tick" transform="translate(0,24.0046648847645)" style="opacity: 1;"><line x2="-6" y2="0" style="shape-rendering: crispEdges; fill: none; stroke: rgb(204, 204, 204);"></line><text dy=".32em" x="-9" y="0" style="text-anchor: end;">60</text></g><g class="tick" transform="translate(0,3.339553179686)" style="opacity: 1;"><line x2="-6" y2="0" style="shape-rendering: crispEdges; fill: none; stroke: rgb(204, 204, 204);"></line><text dy=".32em" x="-9" y="0" style="text-anchor: end;">80</text></g><path class="domain" d="M-6,0H0V86H-6" style="shape-rendering: crispEdges; fill: none; stroke: rgb(204, 204, 204);"></path></g><rect transform="translate(0,30)" class="bar" x="0" width="138" y="4.324560701263848" height="81.67543929873615" style="fill: rgb(105, 170, 191);"></rect><rect transform="translate(0,30)" class="bar" x="153" width="138" y="82.93549408054726" height="3.064505919452742" style="fill: rgb(174, 191, 105);"></rect><rect transform="translate(0,30)" class="bar" x="306" width="138" y="79.57680518761244" height="6.423194812387564" style="fill: rgb(105, 191, 139);"></rect><rect transform="translate(0,30)" class="bar" x="459" width="138" y="84.69956390871931" height="1.3004360912806874" style="fill: rgb(105, 139, 191);"></rect><rect transform="translate(0,30)" class="bar" x="612" width="138" y="56.16552883549218" height="29.834471164507818" style="fill: rgb(174, 105, 191);"></rect></g><g transform="translate(50,232)"><text x="-50" y="23" style="font-size: 10px; font-family: Arial, Helvetica;">Droit</text><g class="y axis" transform="translate(0,30)" style="font-size: 10px; font-family: Arial, Helvetica;"><g class="tick" transform="translate(0,86)" style="opacity: 1;"><line x2="-6" y2="0" style="shape-rendering: crispEdges; fill: none; stroke: rgb(204, 204, 204);"></line><text dy=".32em" x="-9" y="0" style="text-anchor: end;">0</text></g><g class="tick" transform="translate(0,65.3348882949215)" style="opacity: 1;"><line x2="-6" y2="0" style="shape-rendering: crispEdges; fill: none; stroke: rgb(204, 204, 204);"></line><text dy=".32em" x="-9" y="0" style="text-anchor: end;">20</text></g><g class="tick" transform="translate(0,44.669776589842996)" style="opacity: 1;"><line x2="-6" y2="0" style="shape-rendering: crispEdges; fill: none; stroke: rgb(204, 204, 204);"></line><text dy=".32em" x="-9" y="0" style="text-anchor: end;">40</text></g><g class="tick" transform="translate(0,24.0046648847645)" style="opacity: 1;"><line x2="-6" y2="0" style="shape-rendering: crispEdges; fill: none; stroke: rgb(204, 204, 204);"></line><text dy=".32em" x="-9" y="0" style="text-anchor: end;">60</text></g><g class="tick" transform="translate(0,3.339553179686)" style="opacity: 1;"><line x2="-6" y2="0" style="shape-rendering: crispEdges; fill: none; stroke: rgb(204, 204, 204);"></line><text dy=".32em" x="-9" y="0" style="text-anchor: end;">80</text></g><path class="domain" d="M-6,0H0V86H-6" style="shape-rendering: crispEdges; fill: none; stroke: rgb(204, 204, 204);"></path></g><rect transform="translate(0,30)" class="bar" x="0" width="138" y="28.731041918302328" height="57.268958081697676" style="fill: rgb(105, 170, 191);"></rect><rect transform="translate(0,30)" class="bar" x="153" width="138" y="84.2062955846747" height="1.7937044153252941" style="fill: rgb(174, 191, 105);"></rect><rect transform="translate(0,30)" class="bar" x="306" width="138" y="79.88230851503121" height="6.117691484968788" style="fill: rgb(105, 191, 139);"></rect><rect transform="translate(0,30)" class="bar" x="459" width="138" y="85.38618480083926" height="0.6138151991607401" style="fill: rgb(105, 139, 191);"></rect><rect transform="translate(0,30)" class="bar" x="612" width="138" y="81.39979609073418" height="4.600203909265815" style="fill: rgb(174, 105, 191);"></rect></g><g transform="translate(50,348)"><text x="-50" y="23" style="font-size: 10px; font-family: Arial, Helvetica;">Arts et Lettres</text><g class="y axis" transform="translate(0,30)" style="font-size: 10px; font-family: Arial, Helvetica;"><g class="tick" transform="translate(0,86)" style="opacity: 1;"><line x2="-6" y2="0" style="shape-rendering: crispEdges; fill: none; stroke: rgb(204, 204, 204);"></line><text dy=".32em" x="-9" y="0" style="text-anchor: end;">0</text></g><g class="tick" transform="translate(0,65.3348882949215)" style="opacity: 1;"><line x2="-6" y2="0" style="shape-rendering: crispEdges; fill: none; stroke: rgb(204, 204, 204);"></line><text dy=".32em" x="-9" y="0" style="text-anchor: end;">20</text></g><g class="tick" transform="translate(0,44.669776589842996)" style="opacity: 1;"><line x2="-6" y2="0" style="shape-rendering: crispEdges; fill: none; stroke: rgb(204, 204, 204);"></line><text dy=".32em" x="-9" y="0" style="text-anchor: end;">40</text></g><g class="tick" transform="translate(0,24.0046648847645)" style="opacity: 1;"><line x2="-6" y2="0" style="shape-rendering: crispEdges; fill: none; stroke: rgb(204, 204, 204);"></line><text dy=".32em" x="-9" y="0" style="text-anchor: end;">60</text></g><g class="tick" transform="translate(0,3.339553179686)" style="opacity: 1;"><line x2="-6" y2="0" style="shape-rendering: crispEdges; fill: none; stroke: rgb(204, 204, 204);"></line><text dy=".32em" x="-9" y="0" style="text-anchor: end;">80</text></g><path class="domain" d="M-6,0H0V86H-6" style="shape-rendering: crispEdges; fill: none; stroke: rgb(204, 204, 204);"></path></g><rect transform="translate(0,30)" class="bar" x="0" width="138" y="5.93197418940146" height="80.06802581059854" style="fill: rgb(105, 170, 191);"></rect><rect transform="translate(0,30)" class="bar" x="153" width="138" y="80.78239781616651" height="5.217602183833492" style="fill: rgb(174, 191, 105);"></rect><rect transform="translate(0,30)" class="bar" x="306" width="138" y="75.48726324324716" height="10.512736756752844" style="fill: rgb(105, 191, 139);"></rect><rect transform="translate(0,30)" class="bar" x="459" width="138" y="84.51487254708799" height="1.4851274529120104" style="fill: rgb(105, 139, 191);"></rect><rect transform="translate(0,30)" class="bar" x="612" width="138" y="80.06549621849244" height="5.9345037815075585" style="fill: rgb(174, 105, 191);"></rect></g><g transform="translate(50,464)"><text x="-50" y="23" style="font-size: 10px; font-family: Arial, Helvetica;">SHS</text><g class="y axis" transform="translate(0,30)" style="font-size: 10px; font-family: Arial, Helvetica;"><g class="tick" transform="translate(0,86)" style="opacity: 1;"><line x2="-6" y2="0" style="shape-rendering: crispEdges; fill: none; stroke: rgb(204, 204, 204);"></line><text dy=".32em" x="-9" y="0" style="text-anchor: end;">0</text></g><g class="tick" transform="translate(0,65.3348882949215)" style="opacity: 1;"><line x2="-6" y2="0" style="shape-rendering: crispEdges; fill: none; stroke: rgb(204, 204, 204);"></line><text dy=".32em" x="-9" y="0" style="text-anchor: end;">20</text></g><g class="tick" transform="translate(0,44.669776589842996)" style="opacity: 1;"><line x2="-6" y2="0" style="shape-rendering: crispEdges; fill: none; stroke: rgb(204, 204, 204);"></line><text dy=".32em" x="-9" y="0" style="text-anchor: end;">40</text></g><g class="tick" transform="translate(0,24.0046648847645)" style="opacity: 1;"><line x2="-6" y2="0" style="shape-rendering: crispEdges; fill: none; stroke: rgb(204, 204, 204);"></line><text dy=".32em" x="-9" y="0" style="text-anchor: end;">60</text></g><g class="tick" transform="translate(0,3.339553179686)" style="opacity: 1;"><line x2="-6" y2="0" style="shape-rendering: crispEdges; fill: none; stroke: rgb(204, 204, 204);"></line><text dy=".32em" x="-9" y="0" style="text-anchor: end;">80</text></g><path class="domain" d="M-6,0H0V86H-6" style="shape-rendering: crispEdges; fill: none; stroke: rgb(204, 204, 204);"></path></g><rect transform="translate(0,30)" class="bar" x="0" width="138" y="0" height="86" style="fill: rgb(105, 170, 191);"></rect><rect transform="translate(0,30)" class="bar" x="153" width="138" y="83.3202254274043" height="2.6797745725957043" style="fill: rgb(174, 191, 105);"></rect><rect transform="translate(0,30)" class="bar" x="306" width="138" y="78.18674668414945" height="7.813253315850545" style="fill: rgb(105, 191, 139);"></rect><rect transform="translate(0,30)" class="bar" x="459" width="138" y="85.27353875636693" height="0.726461243633068" style="fill: rgb(105, 139, 191);"></rect><rect transform="translate(0,30)" class="bar" x="612" width="138" y="76.22557239396839" height="9.774427606031608" style="fill: rgb(174, 105, 191);"></rect></g><g class="x axis" transform="translate(50,580)" style="font-size: 10px; font-family: Arial, Helvetica;"><g class="tick" transform="translate(69,0)" style="opacity: 1;"><line y2="6" x2="0" style="shape-rendering: crispEdges; fill: none; stroke: rgb(204, 204, 204);"></line><text dy=".71em" y="9" x="0" style="text-anchor: middle;">Word et apparentés</text></g><g class="tick" transform="translate(222,0)" style="opacity: 1;"><line y2="6" x2="0" style="shape-rendering: crispEdges; fill: none; stroke: rgb(204, 204, 204);"></line><text dy=".71em" y="9" x="0" style="text-anchor: middle;">autre</text></g><g class="tick" transform="translate(375,0)" style="opacity: 1;"><line y2="6" x2="0" style="shape-rendering: crispEdges; fill: none; stroke: rgb(204, 204, 204);"></line><text dy=".71em" y="9" x="0" style="text-anchor: middle;">autres bureautique (wysiwyg)</text></g><g class="tick" transform="translate(528,0)" style="opacity: 1;"><line y2="6" x2="0" style="shape-rendering: crispEdges; fill: none; stroke: rgb(204, 204, 204);"></line><text dy=".71em" y="9" x="0" style="text-anchor: middle;">balisage et texte brut</text></g><g class="tick" transform="translate(681,0)" style="opacity: 1;"><line y2="6" x2="0" style="shape-rendering: crispEdges; fill: none; stroke: rgb(204, 204, 204);"></line><text dy=".71em" y="9" x="0" style="text-anchor: middle;">format/éditeur apparenté à TeX</text></g><path class="domain" d="M0,6V0H750V6" style="shape-rendering: crispEdges; fill: none; stroke: rgb(204, 204, 204);"></path></g></svg>