<svg width="800" height="600" xmlns="http://www.w3.org/2000/svg" version="1.1"><g transform="translate(50,0)"><text x="-50" y="23" style="font-size: 10px; font-family: Arial, Helvetica;">Médecine</text><g class="y axis" transform="translate(0,30)" style="font-size: 10px; font-family: Arial, Helvetica;"><g class="tick" transform="translate(0,86)" style="opacity: 1;"><line x2="-6" y2="0" style="shape-rendering: crispEdges; fill: none; stroke: rgb(204, 204, 204);"></line><text dy=".32em" x="-9" y="0" style="text-anchor: end;">0</text></g><g class="tick" transform="translate(0,64.54876775671053)" style="opacity: 1;"><line x2="-6" y2="0" style="shape-rendering: crispEdges; fill: none; stroke: rgb(204, 204, 204);"></line><text dy=".32em" x="-9" y="0" style="text-anchor: end;">20</text></g><g class="tick" transform="translate(0,43.097535513421064)" style="opacity: 1;"><line x2="-6" y2="0" style="shape-rendering: crispEdges; fill: none; stroke: rgb(204, 204, 204);"></line><text dy=".32em" x="-9" y="0" style="text-anchor: end;">40</text></g><g class="tick" transform="translate(0,21.646303270131593)" style="opacity: 1;"><line x2="-6" y2="0" style="shape-rendering: crispEdges; fill: none; stroke: rgb(204, 204, 204);"></line><text dy=".32em" x="-9" y="0" style="text-anchor: end;">60</text></g><g class="tick" transform="translate(0,0.1950710268421303)" style="opacity: 1;"><line x2="-6" y2="0" style="shape-rendering: crispEdges; fill: none; stroke: rgb(204, 204, 204);"></line><text dy=".32em" x="-9" y="0" style="text-anchor: end;">80</text></g><path class="domain" d="M-6,0H0V86H-6" style="shape-rendering: crispEdges; fill: none; stroke: rgb(204, 204, 204);"></path></g><rect transform="translate(0,30)" class="bar" x="0" width="138" y="0" height="86" style="fill: rgb(191, 105, 105);"></rect><rect transform="translate(0,30)" class="bar" x="153" width="138" y="83.40250001366427" height="2.597499986335734" style="fill: rgb(174, 191, 105);"></rect><rect transform="translate(0,30)" class="bar" x="306" width="138" y="81.26235932640645" height="4.737640673593546" style="fill: rgb(105, 191, 139);"></rect><rect transform="translate(0,30)" class="bar" x="459" width="138" y="85.59105591963227" height="0.408944080367732" style="fill: rgb(105, 139, 191);"></rect><rect transform="translate(0,30)" class="bar" x="612" width="138" y="80.69124776589291" height="5.308752234107089" style="fill: rgb(174, 105, 191);"></rect></g><g transform="translate(50,116)"><text x="-50" y="23" style="font-size: 10px; font-family: Arial, Helvetica;">STEM</text><g class="y axis" transform="translate(0,30)" style="font-size: 10px; font-family: Arial, Helvetica;"><g class="tick" transform="translate(0,86)" style="opacity: 1;"><line x2="-6" y2="0" style="shape-rendering: crispEdges; fill: none; stroke: rgb(204, 204, 204);"></line><text dy=".32em" x="-9" y="0" style="text-anchor: end;">0</text></g><g class="tick" transform="translate(0,64.24070954627541)" style="opacity: 1;"><line x2="-6" y2="0" style="shape-rendering: crispEdges; fill: none; stroke: rgb(204, 204, 204);"></line><text dy=".32em" x="-9" y="0" style="text-anchor: end;">20</text></g><g class="tick" transform="translate(0,42.48141909255084)" style="opacity: 1;"><line x2="-6" y2="0" style="shape-rendering: crispEdges; fill: none; stroke: rgb(204, 204, 204);"></line><text dy=".32em" x="-9" y="0" style="text-anchor: end;">40</text></g><g class="tick" transform="translate(0,20.72212863882626)" style="opacity: 1;"><line x2="-6" y2="0" style="shape-rendering: crispEdges; fill: none; stroke: rgb(204, 204, 204);"></line><text dy=".32em" x="-9" y="0" style="text-anchor: end;">60</text></g><path class="domain" d="M-6,0H0V86H-6" style="shape-rendering: crispEdges; fill: none; stroke: rgb(204, 204, 204);"></path></g><rect transform="translate(0,30)" class="bar" x="0" width="138" y="0" height="86" style="fill: rgb(191, 105, 105);"></rect><rect transform="translate(0,30)" class="bar" x="153" width="138" y="82.77323426313039" height="3.226765736869609" style="fill: rgb(174, 191, 105);"></rect><rect transform="translate(0,30)" class="bar" x="306" width="138" y="79.2367091183325" height="6.763290881667501" style="fill: rgb(105, 191, 139);"></rect><rect transform="translate(0,30)" class="bar" x="459" width="138" y="84.63070826664205" height="1.3692917333579544" style="fill: rgb(105, 139, 191);"></rect><rect transform="translate(0,30)" class="bar" x="612" width="138" y="54.58584977102933" height="31.41415022897067" style="fill: rgb(174, 105, 191);"></rect></g><g transform="translate(50,232)"><text x="-50" y="23" style="font-size: 10px; font-family: Arial, Helvetica;">Droit</text><g class="y axis" transform="translate(0,30)" style="font-size: 10px; font-family: Arial, Helvetica;"><g class="tick" transform="translate(0,86)" style="opacity: 1;"><line x2="-6" y2="0" style="shape-rendering: crispEdges; fill: none; stroke: rgb(204, 204, 204);"></line><text dy=".32em" x="-9" y="0" style="text-anchor: end;">0</text></g><g class="tick" transform="translate(0,70.4837441943551)" style="opacity: 1;"><line x2="-6" y2="0" style="shape-rendering: crispEdges; fill: none; stroke: rgb(204, 204, 204);"></line><text dy=".32em" x="-9" y="0" style="text-anchor: end;">10</text></g><g class="tick" transform="translate(0,54.967488388710215)" style="opacity: 1;"><line x2="-6" y2="0" style="shape-rendering: crispEdges; fill: none; stroke: rgb(204, 204, 204);"></line><text dy=".32em" x="-9" y="0" style="text-anchor: end;">20</text></g><g class="tick" transform="translate(0,39.45123258306533)" style="opacity: 1;"><line x2="-6" y2="0" style="shape-rendering: crispEdges; fill: none; stroke: rgb(204, 204, 204);"></line><text dy=".32em" x="-9" y="0" style="text-anchor: end;">30</text></g><g class="tick" transform="translate(0,23.934976777420424)" style="opacity: 1;"><line x2="-6" y2="0" style="shape-rendering: crispEdges; fill: none; stroke: rgb(204, 204, 204);"></line><text dy=".32em" x="-9" y="0" style="text-anchor: end;">40</text></g><g class="tick" transform="translate(0,8.418720971775537)" style="opacity: 1;"><line x2="-6" y2="0" style="shape-rendering: crispEdges; fill: none; stroke: rgb(204, 204, 204);"></line><text dy=".32em" x="-9" y="0" style="text-anchor: end;">50</text></g><path class="domain" d="M-6,0H0V86H-6" style="shape-rendering: crispEdges; fill: none; stroke: rgb(204, 204, 204);"></path></g><rect transform="translate(0,30)" class="bar" x="0" width="138" y="0" height="86" style="fill: rgb(191, 105, 105);"></rect><rect transform="translate(0,30)" class="bar" x="153" width="138" y="83.30641895915207" height="2.6935810408479313" style="fill: rgb(174, 191, 105);"></rect><rect transform="translate(0,30)" class="bar" x="306" width="138" y="76.81314755269739" height="9.186852447302613" style="fill: rgb(105, 191, 139);"></rect><rect transform="translate(0,30)" class="bar" x="459" width="138" y="85.07824222936763" height="0.9217577706323681" style="fill: rgb(105, 139, 191);"></rect><rect transform="translate(0,30)" class="bar" x="612" width="138" y="79.09193759676074" height="6.908062403239256" style="fill: rgb(174, 105, 191);"></rect></g><g transform="translate(50,348)"><text x="-50" y="23" style="font-size: 10px; font-family: Arial, Helvetica;">Arts et Lettres</text><g class="y axis" transform="translate(0,30)" style="font-size: 10px; font-family: Arial, Helvetica;"><g class="tick" transform="translate(0,86)" style="opacity: 1;"><line x2="-6" y2="0" style="shape-rendering: crispEdges; fill: none; stroke: rgb(204, 204, 204);"></line><text dy=".32em" x="-9" y="0" style="text-anchor: end;">0</text></g><g class="tick" transform="translate(0,63.80387878126622)" style="opacity: 1;"><line x2="-6" y2="0" style="shape-rendering: crispEdges; fill: none; stroke: rgb(204, 204, 204);"></line><text dy=".32em" x="-9" y="0" style="text-anchor: end;">20</text></g><g class="tick" transform="translate(0,41.60775756253243)" style="opacity: 1;"><line x2="-6" y2="0" style="shape-rendering: crispEdges; fill: none; stroke: rgb(204, 204, 204);"></line><text dy=".32em" x="-9" y="0" style="text-anchor: end;">40</text></g><g class="tick" transform="translate(0,19.411636343798634)" style="opacity: 1;"><line x2="-6" y2="0" style="shape-rendering: crispEdges; fill: none; stroke: rgb(204, 204, 204);"></line><text dy=".32em" x="-9" y="0" style="text-anchor: end;">60</text></g><path class="domain" d="M-6,0H0V86H-6" style="shape-rendering: crispEdges; fill: none; stroke: rgb(204, 204, 204);"></path></g><rect transform="translate(0,30)" class="bar" x="0" width="138" y="0" height="86" style="fill: rgb(191, 105, 105);"></rect><rect transform="translate(0,30)" class="bar" x="153" width="138" y="80.39584299391726" height="5.604157006082744" style="fill: rgb(174, 191, 105);"></rect><rect transform="translate(0,30)" class="bar" x="306" width="138" y="74.70840948146534" height="11.291590518534662" style="fill: rgb(105, 191, 139);"></rect><rect transform="translate(0,30)" class="bar" x="459" width="138" y="84.40484438504133" height="1.5951556149586708" style="fill: rgb(105, 139, 191);"></rect><rect transform="translate(0,30)" class="bar" x="612" width="138" y="79.62582853713756" height="6.374171462862435" style="fill: rgb(174, 105, 191);"></rect></g><g transform="translate(50,464)"><text x="-50" y="23" style="font-size: 10px; font-family: Arial, Helvetica;">SHS</text><g class="y axis" transform="translate(0,30)" style="font-size: 10px; font-family: Arial, Helvetica;"><g class="tick" transform="translate(0,86)" style="opacity: 1;"><line x2="-6" y2="0" style="shape-rendering: crispEdges; fill: none; stroke: rgb(204, 204, 204);"></line><text dy=".32em" x="-9" y="0" style="text-anchor: end;">0</text></g><g class="tick" transform="translate(0,65.3348882949215)" style="opacity: 1;"><line x2="-6" y2="0" style="shape-rendering: crispEdges; fill: none; stroke: rgb(204, 204, 204);"></line><text dy=".32em" x="-9" y="0" style="text-anchor: end;">20</text></g><g class="tick" transform="translate(0,44.669776589842996)" style="opacity: 1;"><line x2="-6" y2="0" style="shape-rendering: crispEdges; fill: none; stroke: rgb(204, 204, 204);"></line><text dy=".32em" x="-9" y="0" style="text-anchor: end;">40</text></g><g class="tick" transform="translate(0,24.0046648847645)" style="opacity: 1;"><line x2="-6" y2="0" style="shape-rendering: crispEdges; fill: none; stroke: rgb(204, 204, 204);"></line><text dy=".32em" x="-9" y="0" style="text-anchor: end;">60</text></g><g class="tick" transform="translate(0,3.339553179686)" style="opacity: 1;"><line x2="-6" y2="0" style="shape-rendering: crispEdges; fill: none; stroke: rgb(204, 204, 204);"></line><text dy=".32em" x="-9" y="0" style="text-anchor: end;">80</text></g><path class="domain" d="M-6,0H0V86H-6" style="shape-rendering: crispEdges; fill: none; stroke: rgb(204, 204, 204);"></path></g><rect transform="translate(0,30)" class="bar" x="0" width="138" y="0" height="86" style="fill: rgb(191, 105, 105);"></rect><rect transform="translate(0,30)" class="bar" x="153" width="138" y="83.3202254274043" height="2.6797745725957043" style="fill: rgb(174, 191, 105);"></rect><rect transform="translate(0,30)" class="bar" x="306" width="138" y="78.18674668414945" height="7.813253315850545" style="fill: rgb(105, 191, 139);"></rect><rect transform="translate(0,30)" class="bar" x="459" width="138" y="85.27353875636693" height="0.726461243633068" style="fill: rgb(105, 139, 191);"></rect><rect transform="translate(0,30)" class="bar" x="612" width="138" y="76.22557239396839" height="9.774427606031608" style="fill: rgb(174, 105, 191);"></rect></g><g class="x axis" transform="translate(50,580)" style="font-size: 10px; font-family: Arial, Helvetica;"><g class="tick" transform="translate(69,0)" style="opacity: 1;"><line y2="6" x2="0" style="shape-rendering: crispEdges; fill: none; stroke: rgb(204, 204, 204);"></line><text dy=".71em" y="9" x="0" style="text-anchor: middle;">Word et apparentés</text></g><g class="tick" transform="translate(222,0)" style="opacity: 1;"><line y2="6" x2="0" style="shape-rendering: crispEdges; fill: none; stroke: rgb(204, 204, 204);"></line><text dy=".71em" y="9" x="0" style="text-anchor: middle;">autre</text></g><g class="tick" transform="translate(375,0)" style="opacity: 1;"><line y2="6" x2="0" style="shape-rendering: crispEdges; fill: none; stroke: rgb(204, 204, 204);"></line><text dy=".71em" y="9" x="0" style="text-anchor: middle;">autres bureautique (wysiwyg)</text></g><g class="tick" transform="translate(528,0)" style="opacity: 1;"><line y2="6" x2="0" style="shape-rendering: crispEdges; fill: none; stroke: rgb(204, 204, 204);"></line><text dy=".71em" y="9" x="0" style="text-anchor: middle;">balisage et texte brut</text></g><g class="tick" transform="translate(681,0)" style="opacity: 1;"><line y2="6" x2="0" style="shape-rendering: crispEdges; fill: none; stroke: rgb(204, 204, 204);"></line><text dy=".71em" y="9" x="0" style="text-anchor: middle;">format/éditeur apparenté à TeX</text></g><path class="domain" d="M0,6V0H750V6" style="shape-rendering: crispEdges; fill: none; stroke: rgb(204, 204, 204);"></path></g></svg>