<svg width="1400" height="600" xmlns="http://www.w3.org/2000/svg" version="1.1"><g transform="translate(50,0)"><text x="-50" y="-7" style="font-size: 10px; font-family: Arial, Helvetica;">null</text><g class="y axis" transform="translate(0,0)" style="font-size: 10px; font-family: Arial, Helvetica;"><g class="tick" transform="translate(0,550)" style="opacity: 1;"><line x2="-6" y2="0" style="shape-rendering: crispEdges; fill: none; stroke: rgb(204, 204, 204);"></line><text dy=".32em" x="-9" y="0" style="text-anchor: end;">0</text></g><g class="tick" transform="translate(0,537.9596274963665)" style="opacity: 1;"><line x2="-6" y2="0" style="shape-rendering: crispEdges; fill: none; stroke: rgb(204, 204, 204);"></line><text dy=".32em" x="-9" y="0" style="text-anchor: end;">2</text></g><g class="tick" transform="translate(0,525.9192549927329)" style="opacity: 1;"><line x2="-6" y2="0" style="shape-rendering: crispEdges; fill: none; stroke: rgb(204, 204, 204);"></line><text dy=".32em" x="-9" y="0" style="text-anchor: end;">4</text></g><g class="tick" transform="translate(0,513.8788824890994)" style="opacity: 1;"><line x2="-6" y2="0" style="shape-rendering: crispEdges; fill: none; stroke: rgb(204, 204, 204);"></line><text dy=".32em" x="-9" y="0" style="text-anchor: end;">6</text></g><g class="tick" transform="translate(0,501.8385099854659)" style="opacity: 1;"><line x2="-6" y2="0" style="shape-rendering: crispEdges; fill: none; stroke: rgb(204, 204, 204);"></line><text dy=".32em" x="-9" y="0" style="text-anchor: end;">8</text></g><g class="tick" transform="translate(0,489.7981374818324)" style="opacity: 1;"><line x2="-6" y2="0" style="shape-rendering: crispEdges; fill: none; stroke: rgb(204, 204, 204);"></line><text dy=".32em" x="-9" y="0" style="text-anchor: end;">10</text></g><g class="tick" transform="translate(0,477.7577649781989)" style="opacity: 1;"><line x2="-6" y2="0" style="shape-rendering: crispEdges; fill: none; stroke: rgb(204, 204, 204);"></line><text dy=".32em" x="-9" y="0" style="text-anchor: end;">12</text></g><g class="tick" transform="translate(0,465.71739247456526)" style="opacity: 1;"><line x2="-6" y2="0" style="shape-rendering: crispEdges; fill: none; stroke: rgb(204, 204, 204);"></line><text dy=".32em" x="-9" y="0" style="text-anchor: end;">14</text></g><g class="tick" transform="translate(0,453.6770199709318)" style="opacity: 1;"><line x2="-6" y2="0" style="shape-rendering: crispEdges; fill: none; stroke: rgb(204, 204, 204);"></line><text dy=".32em" x="-9" y="0" style="text-anchor: end;">16</text></g><g class="tick" transform="translate(0,441.63664746729825)" style="opacity: 1;"><line x2="-6" y2="0" style="shape-rendering: crispEdges; fill: none; stroke: rgb(204, 204, 204);"></line><text dy=".32em" x="-9" y="0" style="text-anchor: end;">18</text></g><g class="tick" transform="translate(0,429.5962749636647)" style="opacity: 1;"><line x2="-6" y2="0" style="shape-rendering: crispEdges; fill: none; stroke: rgb(204, 204, 204);"></line><text dy=".32em" x="-9" y="0" style="text-anchor: end;">20</text></g><g class="tick" transform="translate(0,417.55590246003123)" style="opacity: 1;"><line x2="-6" y2="0" style="shape-rendering: crispEdges; fill: none; stroke: rgb(204, 204, 204);"></line><text dy=".32em" x="-9" y="0" style="text-anchor: end;">22</text></g><g class="tick" transform="translate(0,405.5155299563977)" style="opacity: 1;"><line x2="-6" y2="0" style="shape-rendering: crispEdges; fill: none; stroke: rgb(204, 204, 204);"></line><text dy=".32em" x="-9" y="0" style="text-anchor: end;">24</text></g><g class="tick" transform="translate(0,393.47515745276417)" style="opacity: 1;"><line x2="-6" y2="0" style="shape-rendering: crispEdges; fill: none; stroke: rgb(204, 204, 204);"></line><text dy=".32em" x="-9" y="0" style="text-anchor: end;">26</text></g><g class="tick" transform="translate(0,381.43478494913063)" style="opacity: 1;"><line x2="-6" y2="0" style="shape-rendering: crispEdges; fill: none; stroke: rgb(204, 204, 204);"></line><text dy=".32em" x="-9" y="0" style="text-anchor: end;">28</text></g><g class="tick" transform="translate(0,369.3944124454971)" style="opacity: 1;"><line x2="-6" y2="0" style="shape-rendering: crispEdges; fill: none; stroke: rgb(204, 204, 204);"></line><text dy=".32em" x="-9" y="0" style="text-anchor: end;">30</text></g><g class="tick" transform="translate(0,357.3540399418636)" style="opacity: 1;"><line x2="-6" y2="0" style="shape-rendering: crispEdges; fill: none; stroke: rgb(204, 204, 204);"></line><text dy=".32em" x="-9" y="0" style="text-anchor: end;">32</text></g><g class="tick" transform="translate(0,345.3136674382301)" style="opacity: 1;"><line x2="-6" y2="0" style="shape-rendering: crispEdges; fill: none; stroke: rgb(204, 204, 204);"></line><text dy=".32em" x="-9" y="0" style="text-anchor: end;">34</text></g><g class="tick" transform="translate(0,333.27329493459655)" style="opacity: 1;"><line x2="-6" y2="0" style="shape-rendering: crispEdges; fill: none; stroke: rgb(204, 204, 204);"></line><text dy=".32em" x="-9" y="0" style="text-anchor: end;">36</text></g><g class="tick" transform="translate(0,321.2329224309631)" style="opacity: 1;"><line x2="-6" y2="0" style="shape-rendering: crispEdges; fill: none; stroke: rgb(204, 204, 204);"></line><text dy=".32em" x="-9" y="0" style="text-anchor: end;">38</text></g><g class="tick" transform="translate(0,309.1925499273294)" style="opacity: 1;"><line x2="-6" y2="0" style="shape-rendering: crispEdges; fill: none; stroke: rgb(204, 204, 204);"></line><text dy=".32em" x="-9" y="0" style="text-anchor: end;">40</text></g><g class="tick" transform="translate(0,297.15217742369595)" style="opacity: 1;"><line x2="-6" y2="0" style="shape-rendering: crispEdges; fill: none; stroke: rgb(204, 204, 204);"></line><text dy=".32em" x="-9" y="0" style="text-anchor: end;">42</text></g><g class="tick" transform="translate(0,285.1118049200624)" style="opacity: 1;"><line x2="-6" y2="0" style="shape-rendering: crispEdges; fill: none; stroke: rgb(204, 204, 204);"></line><text dy=".32em" x="-9" y="0" style="text-anchor: end;">44</text></g><g class="tick" transform="translate(0,273.0714324164289)" style="opacity: 1;"><line x2="-6" y2="0" style="shape-rendering: crispEdges; fill: none; stroke: rgb(204, 204, 204);"></line><text dy=".32em" x="-9" y="0" style="text-anchor: end;">46</text></g><g class="tick" transform="translate(0,261.0310599127954)" style="opacity: 1;"><line x2="-6" y2="0" style="shape-rendering: crispEdges; fill: none; stroke: rgb(204, 204, 204);"></line><text dy=".32em" x="-9" y="0" style="text-anchor: end;">48</text></g><g class="tick" transform="translate(0,248.99068740916186)" style="opacity: 1;"><line x2="-6" y2="0" style="shape-rendering: crispEdges; fill: none; stroke: rgb(204, 204, 204);"></line><text dy=".32em" x="-9" y="0" style="text-anchor: end;">50</text></g><g class="tick" transform="translate(0,236.95031490552833)" style="opacity: 1;"><line x2="-6" y2="0" style="shape-rendering: crispEdges; fill: none; stroke: rgb(204, 204, 204);"></line><text dy=".32em" x="-9" y="0" style="text-anchor: end;">52</text></g><g class="tick" transform="translate(0,224.9099424018948)" style="opacity: 1;"><line x2="-6" y2="0" style="shape-rendering: crispEdges; fill: none; stroke: rgb(204, 204, 204);"></line><text dy=".32em" x="-9" y="0" style="text-anchor: end;">54</text></g><g class="tick" transform="translate(0,212.86956989826126)" style="opacity: 1;"><line x2="-6" y2="0" style="shape-rendering: crispEdges; fill: none; stroke: rgb(204, 204, 204);"></line><text dy=".32em" x="-9" y="0" style="text-anchor: end;">56</text></g><g class="tick" transform="translate(0,200.82919739462778)" style="opacity: 1;"><line x2="-6" y2="0" style="shape-rendering: crispEdges; fill: none; stroke: rgb(204, 204, 204);"></line><text dy=".32em" x="-9" y="0" style="text-anchor: end;">58</text></g><g class="tick" transform="translate(0,188.78882489099425)" style="opacity: 1;"><line x2="-6" y2="0" style="shape-rendering: crispEdges; fill: none; stroke: rgb(204, 204, 204);"></line><text dy=".32em" x="-9" y="0" style="text-anchor: end;">60</text></g><g class="tick" transform="translate(0,176.7484523873607)" style="opacity: 1;"><line x2="-6" y2="0" style="shape-rendering: crispEdges; fill: none; stroke: rgb(204, 204, 204);"></line><text dy=".32em" x="-9" y="0" style="text-anchor: end;">62</text></g><g class="tick" transform="translate(0,164.70807988372715)" style="opacity: 1;"><line x2="-6" y2="0" style="shape-rendering: crispEdges; fill: none; stroke: rgb(204, 204, 204);"></line><text dy=".32em" x="-9" y="0" style="text-anchor: end;">64</text></g><g class="tick" transform="translate(0,152.66770738009367)" style="opacity: 1;"><line x2="-6" y2="0" style="shape-rendering: crispEdges; fill: none; stroke: rgb(204, 204, 204);"></line><text dy=".32em" x="-9" y="0" style="text-anchor: end;">66</text></g><g class="tick" transform="translate(0,140.62733487646014)" style="opacity: 1;"><line x2="-6" y2="0" style="shape-rendering: crispEdges; fill: none; stroke: rgb(204, 204, 204);"></line><text dy=".32em" x="-9" y="0" style="text-anchor: end;">68</text></g><g class="tick" transform="translate(0,128.5869623728266)" style="opacity: 1;"><line x2="-6" y2="0" style="shape-rendering: crispEdges; fill: none; stroke: rgb(204, 204, 204);"></line><text dy=".32em" x="-9" y="0" style="text-anchor: end;">70</text></g><g class="tick" transform="translate(0,116.54658986919306)" style="opacity: 1;"><line x2="-6" y2="0" style="shape-rendering: crispEdges; fill: none; stroke: rgb(204, 204, 204);"></line><text dy=".32em" x="-9" y="0" style="text-anchor: end;">72</text></g><g class="tick" transform="translate(0,104.50621736555958)" style="opacity: 1;"><line x2="-6" y2="0" style="shape-rendering: crispEdges; fill: none; stroke: rgb(204, 204, 204);"></line><text dy=".32em" x="-9" y="0" style="text-anchor: end;">74</text></g><g class="tick" transform="translate(0,92.46584486192604)" style="opacity: 1;"><line x2="-6" y2="0" style="shape-rendering: crispEdges; fill: none; stroke: rgb(204, 204, 204);"></line><text dy=".32em" x="-9" y="0" style="text-anchor: end;">76</text></g><g class="tick" transform="translate(0,80.42547235829251)" style="opacity: 1;"><line x2="-6" y2="0" style="shape-rendering: crispEdges; fill: none; stroke: rgb(204, 204, 204);"></line><text dy=".32em" x="-9" y="0" style="text-anchor: end;">78</text></g><g class="tick" transform="translate(0,68.38509985465896)" style="opacity: 1;"><line x2="-6" y2="0" style="shape-rendering: crispEdges; fill: none; stroke: rgb(204, 204, 204);"></line><text dy=".32em" x="-9" y="0" style="text-anchor: end;">80</text></g><g class="tick" transform="translate(0,56.344727351025426)" style="opacity: 1;"><line x2="-6" y2="0" style="shape-rendering: crispEdges; fill: none; stroke: rgb(204, 204, 204);"></line><text dy=".32em" x="-9" y="0" style="text-anchor: end;">82</text></g><g class="tick" transform="translate(0,44.30435484739195)" style="opacity: 1;"><line x2="-6" y2="0" style="shape-rendering: crispEdges; fill: none; stroke: rgb(204, 204, 204);"></line><text dy=".32em" x="-9" y="0" style="text-anchor: end;">84</text></g><g class="tick" transform="translate(0,32.26398234375841)" style="opacity: 1;"><line x2="-6" y2="0" style="shape-rendering: crispEdges; fill: none; stroke: rgb(204, 204, 204);"></line><text dy=".32em" x="-9" y="0" style="text-anchor: end;">86</text></g><g class="tick" transform="translate(0,20.22360984012487)" style="opacity: 1;"><line x2="-6" y2="0" style="shape-rendering: crispEdges; fill: none; stroke: rgb(204, 204, 204);"></line><text dy=".32em" x="-9" y="0" style="text-anchor: end;">88</text></g><g class="tick" transform="translate(0,8.183237336491327)" style="opacity: 1;"><line x2="-6" y2="0" style="shape-rendering: crispEdges; fill: none; stroke: rgb(204, 204, 204);"></line><text dy=".32em" x="-9" y="0" style="text-anchor: end;">90</text></g><path class="domain" d="M-6,0H0V550H-6" style="shape-rendering: crispEdges; fill: none; stroke: rgb(204, 204, 204);"></path></g><rect transform="translate(0,0)" class="bar" x="8" width="60" y="548.7861333907521" height="1.2138666092479298" style="fill: rgb(191, 105, 105);"></rect><rect transform="translate(0,0)" class="bar" x="75" width="60" y="544.4635840017226" height="5.536415998277448" style="fill: rgb(148, 191, 105);"></rect><rect transform="translate(0,0)" class="bar" x="142" width="60" y="542.8056198525059" height="7.194380147494144" style="fill: rgb(148, 191, 105);"></rect><rect transform="translate(0,0)" class="bar" x="209" width="60" y="547.4834472735103" height="2.516552726489749" style="fill: rgb(191, 105, 105);"></rect><rect transform="translate(0,0)" class="bar" x="276" width="60" y="547.5426602788394" height="2.457339721160565" style="fill: rgb(191, 105, 105);"></rect><rect transform="translate(0,0)" class="bar" x="343" width="60" y="353.412822307154" height="196.587177692846" style="fill: rgb(105, 191, 191);"></rect><rect transform="translate(0,0)" class="bar" x="410" width="60" y="438.85718899714703" height="111.14281100285297" style="fill: rgb(148, 105, 191);"></rect><rect transform="translate(0,0)" class="bar" x="477" width="60" y="542.0950637885558" height="7.904936211444237" style="fill: rgb(148, 191, 105);"></rect><rect transform="translate(0,0)" class="bar" x="544" width="60" y="548.430855358777" height="1.5691446412230334" style="fill: rgb(148, 191, 105);"></rect><rect transform="translate(0,0)" class="bar" x="611" width="60" y="548.4012488561124" height="1.5987511438876254" style="fill: rgb(148, 105, 191);"></rect><rect transform="translate(0,0)" class="bar" x="678" width="60" y="547.9867578188082" height="2.0132421811917993" style="fill: rgb(191, 105, 105);"></rect><rect transform="translate(0,0)" class="bar" x="745" width="60" y="547.2465952521935" height="2.753404747806485" style="fill: rgb(191, 105, 105);"></rect><rect transform="translate(0,0)" class="bar" x="812" width="60" y="0" height="550" style="fill: rgb(105, 191, 191);"></rect><rect transform="translate(0,0)" class="bar" x="879" width="60" y="543.6346019271142" height="6.365398072885796" style="fill: rgb(105, 191, 191);"></rect><rect transform="translate(0,0)" class="bar" x="946" width="60" y="538.3054314474889" height="11.6945685525111" style="fill: rgb(148, 105, 191);"></rect><rect transform="translate(0,0)" class="bar" x="1013" width="60" y="542.8352263551704" height="7.164773644829552" style="fill: rgb(148, 191, 105);"></rect><rect transform="translate(0,0)" class="bar" x="1080" width="60" y="547.4834472735103" height="2.516552726489749" style="fill: rgb(191, 105, 105);"></rect><rect transform="translate(0,0)" class="bar" x="1147" width="60" y="533.5683910211552" height="16.431608978844793" style="fill: rgb(148, 191, 105);"></rect><rect transform="translate(0,0)" class="bar" x="1214" width="60" y="548.282822845454" height="1.7171771545459933" style="fill: rgb(148, 105, 191);"></rect><rect transform="translate(0,0)" class="bar" x="1281" width="60" y="548.8453463960811" height="1.1546536039188595" style="fill: rgb(148, 191, 105);"></rect></g><g class="x axis" transform="translate(50,550)" style="font-size: 10px; font-family: Arial, Helvetica;"><g class="tick" transform="translate(38,0)" style="opacity: 1;"><line y2="6" x2="0" style="shape-rendering: crispEdges; fill: none; stroke: rgb(204, 204, 204);"></line><text dy=".71em" y="9" x="0" style="text-anchor: middle;">Adobe InDesign</text></g><g class="tick" transform="translate(105,0)" style="opacity: 1;"><line y2="6" x2="0" style="shape-rendering: crispEdges; fill: none; stroke: rgb(204, 204, 204);"></line><text dy=".71em" y="9" x="0" style="text-anchor: middle;">Authorea</text></g><g class="tick" transform="translate(172,0)" style="opacity: 1;"><line y2="6" x2="0" style="shape-rendering: crispEdges; fill: none; stroke: rgb(204, 204, 204);"></line><text dy=".71em" y="9" x="0" style="text-anchor: middle;">Dropbox</text></g><g class="tick" transform="translate(239,0)" style="opacity: 1;"><line y2="6" x2="0" style="shape-rendering: crispEdges; fill: none; stroke: rgb(204, 204, 204);"></line><text dy=".71em" y="9" x="0" style="text-anchor: middle;">EndNote</text></g><g class="tick" transform="translate(306,0)" style="opacity: 1;"><line y2="6" x2="0" style="shape-rendering: crispEdges; fill: none; stroke: rgb(204, 204, 204);"></line><text dy=".71em" y="9" x="0" style="text-anchor: middle;">Evernote</text></g><g class="tick" transform="translate(373,0)" style="opacity: 1;"><line y2="6" x2="0" style="shape-rendering: crispEdges; fill: none; stroke: rgb(204, 204, 204);"></line><text dy=".71em" y="9" x="0" style="text-anchor: middle;">Google Drive/Docs</text></g><g class="tick" transform="translate(440,0)" style="opacity: 1;"><line y2="6" x2="0" style="shape-rendering: crispEdges; fill: none; stroke: rgb(204, 204, 204);"></line><text dy=".71em" y="9" x="0" style="text-anchor: middle;">LaTeX</text></g><g class="tick" transform="translate(507,0)" style="opacity: 1;"><line y2="6" x2="0" style="shape-rendering: crispEdges; fill: none; stroke: rgb(204, 204, 204);"></line><text dy=".71em" y="9" x="0" style="text-anchor: middle;">LibreOffice</text></g><g class="tick" transform="translate(574,0)" style="opacity: 1;"><line y2="6" x2="0" style="shape-rendering: crispEdges; fill: none; stroke: rgb(204, 204, 204);"></line><text dy=".71em" y="9" x="0" style="text-anchor: middle;">LibreOffice Writer</text></g><g class="tick" transform="translate(641,0)" style="opacity: 1;"><line y2="6" x2="0" style="shape-rendering: crispEdges; fill: none; stroke: rgb(204, 204, 204);"></line><text dy=".71em" y="9" x="0" style="text-anchor: middle;">LyX</text></g><g class="tick" transform="translate(708,0)" style="opacity: 1;"><line y2="6" x2="0" style="shape-rendering: crispEdges; fill: none; stroke: rgb(204, 204, 204);"></line><text dy=".71em" y="9" x="0" style="text-anchor: middle;">MS Excel</text></g><g class="tick" transform="translate(775,0)" style="opacity: 1;"><line y2="6" x2="0" style="shape-rendering: crispEdges; fill: none; stroke: rgb(204, 204, 204);"></line><text dy=".71em" y="9" x="0" style="text-anchor: middle;">MS Powerpoint</text></g><g class="tick" transform="translate(842,0)" style="opacity: 1;"><line y2="6" x2="0" style="shape-rendering: crispEdges; fill: none; stroke: rgb(204, 204, 204);"></line><text dy=".71em" y="9" x="0" style="text-anchor: middle;">MS Word</text></g><g class="tick" transform="translate(909,0)" style="opacity: 1;"><line y2="6" x2="0" style="shape-rendering: crispEdges; fill: none; stroke: rgb(204, 204, 204);"></line><text dy=".71em" y="9" x="0" style="text-anchor: middle;">OpenOffice</text></g><g class="tick" transform="translate(976,0)" style="opacity: 1;"><line y2="6" x2="0" style="shape-rendering: crispEdges; fill: none; stroke: rgb(204, 204, 204);"></line><text dy=".71em" y="9" x="0" style="text-anchor: middle;">Overleaf (=WriteLaTeX)</text></g><g class="tick" transform="translate(1043,0)" style="opacity: 1;"><line y2="6" x2="0" style="shape-rendering: crispEdges; fill: none; stroke: rgb(204, 204, 204);"></line><text dy=".71em" y="9" x="0" style="text-anchor: middle;">Pages</text></g><g class="tick" transform="translate(1110,0)" style="opacity: 1;"><line y2="6" x2="0" style="shape-rendering: crispEdges; fill: none; stroke: rgb(204, 204, 204);"></line><text dy=".71em" y="9" x="0" style="text-anchor: middle;">Scalar</text></g><g class="tick" transform="translate(1177,0)" style="opacity: 1;"><line y2="6" x2="0" style="shape-rendering: crispEdges; fill: none; stroke: rgb(204, 204, 204);"></line><text dy=".71em" y="9" x="0" style="text-anchor: middle;">Scrivener</text></g><g class="tick" transform="translate(1244,0)" style="opacity: 1;"><line y2="6" x2="0" style="shape-rendering: crispEdges; fill: none; stroke: rgb(204, 204, 204);"></line><text dy=".71em" y="9" x="0" style="text-anchor: middle;">ShareLaTeX</text></g><g class="tick" transform="translate(1311,0)" style="opacity: 1;"><line y2="6" x2="0" style="shape-rendering: crispEdges; fill: none; stroke: rgb(204, 204, 204);"></line><text dy=".71em" y="9" x="0" style="text-anchor: middle;">WordPerfect</text></g><path class="domain" d="M0,6V0H1350V6" style="shape-rendering: crispEdges; fill: none; stroke: rgb(204, 204, 204);"></path></g></svg>